<?xml version="1.0" encoding="utf-8"?>
<!-- Generator: Adobe Illustrator 22.0.1, SVG Export Plug-In . SVG Version: 6.00 Build 0)  -->
<svg version="1.1" id="Layer_2" xmlns="http://www.w3.org/2000/svg" xmlns:xlink="http://www.w3.org/1999/xlink" x="0px" y="0px"
	 viewBox="0 0 100 100" style="enable-background:new 0 0 100 100;" xml:space="preserve">
<style type="text/css">
	.st0{fill:#231F20;}
</style>
<g>
	<g>
		<path class="st0" d="M55,65.1c-0.3,0.2-0.6,0.4-0.9,0.5C54.4,65.5,54.7,65.4,55,65.1z"/>
		<path class="st0" d="M46,41.3c0.2-0.4,0.4-0.7,0.5-1.1C46.3,40.6,46.2,40.9,46,41.3z"/>
		<path class="st0" d="M73.3,38.7c0.3,0.8,0.6,1.6,0.8,2.3C73.9,40.2,73.6,39.5,73.3,38.7z"/>
		<path class="st0" d="M47.2,38.5c-0.2,0.4-0.3,0.8-0.4,1.1C47,39.2,47.1,38.8,47.2,38.5z"/>
		<path class="st0" d="M66.1,89.1c-0.2,0-0.3-0.1-0.5-0.1C65.7,89,65.9,89.1,66.1,89.1z"/>
		<path class="st0" d="M22.8,91.9c2.7,1.8,5.6,3.3,8.6,4.5c-0.2-0.2-0.4-0.5-0.6-0.8C28.8,92.3,25.8,91.9,22.8,91.9z"/>
		<path class="st0" d="M90.8,78.8c-3.1-1-6.2-2-9.3-3c-1.9-0.6-3.1-0.4-4,0.2c0.1-0.1,0.1-0.3,0.2-0.4c0.2-0.4-2.8-2-3.6-2.8
			c-0.2,2.2,0.8,6.1,0.6,8.3c-0.5,1.1-1.1,2-2.2,2.5c0.3-0.2,0.7-0.3,1-0.3c-0.3,0-0.6,0.1-0.9,0.3c-0.2,0.3-0.4,0.5-0.7,0.8
			c0.2,0.1,0.3,0.2,0.5,0.2c-0.2-0.1-0.3-0.1-0.5-0.2c-1.6,1.2-3.1,2.4-4.7,3.6c0.1,0.9-0.2,1.2-0.6,1.2c-0.1,0-0.3,0-0.4,0
			c-0.2,0-0.4-0.1-0.5-0.1c-0.2,0-0.3,0-0.5,0c-0.1,0-0.3,0-0.4,0.1c-0.1,0.1-0.2,0.2-0.2,0.4c-2.6-1.3-4.3,3.7-7.1,1.1
			c-0.2,0-0.5,0-0.7,0c-2.1,0.3-4.1,0.6-6.1,0.9c0,0,0,0,0,0c2-0.3,4-0.6,6.1-0.9c-2-0.1-4.1-0.1-6.2,0c-0.1,0-0.3,0-0.4,0
			c-0.5,0-1,0-1.5,0.1c-2.3-0.3-4.3-0.9-6.2-1.9c0,0,0,0-0.1,0c1.9,1,3.9,1.5,6.2,1.8c-2.1-0.3-4.3-0.9-6.2-1.8
			c-0.9-0.5-1.8-1.1-2.6-1.8c-0.4-0.4-0.8-0.7-1.2-1.2c-0.4-0.4-0.7-0.9-1.1-1.4c-0.1-0.1-0.2-0.1-0.3-0.2c-0.1-0.1-0.2-0.2-0.2-0.2
			c-0.1-0.4-0.2-0.7-0.4-1.1c-0.1-0.9-0.3-1.8-0.4-2.7c-0.1-0.1-0.2-0.2-0.3-0.3c0-0.1,0-0.1,0-0.2c0.1,0.1,0.2,0.2,0.4,0.3
			c0.1,0.9,0.3,1.8,0.4,2.7c0,0.1,0.1,0.2,0.1,0.3c0-0.1,0-0.1-0.1-0.2l0.1,0.3c0,0.1,0.1,0.2,0.1,0.3l0.2,0.5
			c0-0.1-0.1-0.2-0.1-0.3c0,0.1,0,0.1,0.1,0.2c0.1,0.1,0.3,0.3,0.4,0.4c0.3,0.5,0.7,1,1.1,1.4c0.4,0.4,0.8,0.8,1.2,1.2
			c0.8,0.7,1.7,1.3,2.7,1.8c1.9,1,4,1.6,6.3,1.9c0.5,0,1.1,0,1.6-0.1c-1.8-1-3.7-3-5.3-2.9c1.7-0.2,3.5,1.9,5.3,2.9
			c0,0,0.1,0,0.2,0.1c0,0,0-0.1-0.1-0.1c0,0,0.1,0,0.1,0c2.1,0,4,0,6.1,0c0,0,0.1,0,0.1,0c0.2,0,0.4,0,0.6,0
			c1.3-0.7,2.6-1.5,3.8-2.2c0.3-0.4,0.3-0.6,0.2-0.7c0.3,0,0.3,0.2-0.1,0.7c4.6-0.3,7.7-3.2,10.6-6.3c0,0-0.1,0-0.1,0
			c0.5-0.9,1-1.8,1.6-2.7c0.2-2.2,0.5-4.4,0.7-6.6c-0.1-0.9-0.3-1.8-0.4-2.7c0,0,0.1,0,0.1,0.1c-0.1-1.9-0.3-3.9-0.4-5.8
			c-1.1,2.8-2.2,5.5-3.2,8.3c-0.2,0.3,0.3,1,0.5,1.5c0,0-0.1-0.1-0.1-0.1c-0.3-0.5-0.7-1.2-0.6-1.6c1-2.8,2.1-5.5,3.2-8.3
			c0-0.3,0-0.5,0-0.8c0.1,0,0.3,0,0.4,0.1c0-0.3,0-0.5,0.1-0.8c0-0.1-0.1-0.2-0.1-0.2c0.4-1.5,0.7-2.9,1-4.4c-0.2,0-0.3,0.1-0.4,0.1
			c0.2-0.1,0.4-0.2,0.6-0.2c0.2,0,0.4,0,0.6,0c0.1,0,0.2,0,0.3,0c0.2,0,0.3,0,0.5,0c0.1-0.1,0.3-0.2,0.4-0.4
			c1.6-2.3,3.2-4.6,4.7-6.8c2.4-1.3,1.1-3.6,1.4-5.4c-0.5-0.8-1-1.6-1.5-2.4c-0.1-0.3-0.3-0.7-0.4-1c-0.6-0.3-1.3-0.6-2-0.9
			c0-0.2-0.1-0.5-0.1-0.7c-0.1-0.1-0.1-0.1-0.2-0.2c0-1.2,0-2.2,0-3.4c-0.1-1.2-0.2-2.3-0.3-3.5c-0.8-10-4.6-18.4-12.9-24.4
			C60.8,7.5,56.4,6,52,4.5c-1.3,0-2.7-0.1-4-0.1c-0.9,0.2-1.8,0.3-2.7,0.5c-0.2,0-0.5,0-0.7,0.1c-0.9,0.4-1.7,0.9-2.6,1.3
			c-2.9,2.1-5.6,4.2-8.5,6.2c0,0,0-0.1,0-0.1c-0.9,1.3-1.9,2.5-2.8,3.8c-0.3,0.7-0.5,1.3-0.8,2c0,0.1,0.1,0.2,0.1,0.3
			c0,0-0.1,0-0.1,0.1c-0.1,0.1-0.3,0.2-0.4,0.4c-0.2,0.7-0.4,1.3-0.6,2v0.1c0,0.4-0.1,0.7-0.1,1c0,0,0,0,0,0
			C27.9,28,26.6,33.9,28,39.9c0.1-0.4,0.1-0.9,0.2-1.3c-0.1,0.5-0.1,0.9-0.2,1.4c0,1.2,0,2.3-0.1,3.5c0.8,2.6-2.7,0.9-2.7,2.7
			c0,0.4,0,0.7,0,1.1c0.1,0,0.1,0.1,0.2,0.1c-0.1,0.3-0.2,0.5-0.3,0.7c0.6,2,1.3,3.9,1.9,5.9c0.1,0.2,0.2,0.3,0.2,0.5
			c0,0.1-0.1,0.1-0.1,0.2c0.9,2.6,1.8,5.2,2.7,7.7c0.2,0.1,0.4,0.3,0.6,0.4c0.1,0.1,0.3,0.2,0.4,0.2c1.1,2,2,4,3.1,6
			c0.4,0.7,0.8,1.4,1.2,2.1c0.4,0.8,0.8,1.7,1.1,2.5c0,0,0,0.1,0,0.1l0,0.1c0-0.1-0.1-0.2-0.1-0.3c-0.1,0.7-0.4,1.4-0.5,2.1
			l-0.5,1.8c-0.2,2.3-2,3.6-4.3,4c-0.6,0.2-1.2,0.5-1.8,0.7c-0.3,0.8-0.5,1.9-1,2.2c-3.1,1.6-6.3,3-9.4,4.4c1.4,1.1,2.8,2.2,4.4,3.2
			c3,0,6,0.3,8,3.6c0.2,0.3,0.4,0.6,0.6,0.8c0.8,0.3,1.5,0.6,2.3,0.9c0.4-0.2,1-1,1.3-1.9c0.7-2,1.3-1.3,2.4-0.7c2.7,1.5,5,4,8.5,3
			c0,0,0,0.1,0,0.1c-3.5,0.9-5.8-1.5-8.5-3c-1.1-0.6-1.6-1.3-2.4,0.7c-0.3,0.9-0.9,1.7-1.5,2c4.7,1.6,9.6,2.5,14.8,2.7c1,0,2,0,3,0
			c10.5-0.3,20.3-3.9,28.2-9.7c-0.4-0.3-0.6-0.4-0.6-0.5c0,0.1,0.3,0.2,0.6,0.3c0.4-0.3,0.7-0.6,1.1-0.8c0,0,0-0.1,0-0.1
			C84.6,86.3,87.9,82.8,90.8,78.8z M36.3,62.8c0-0.1-0.1-0.1-0.1-0.2c0-0.3,0-0.7,0-1c0,0,0-0.1,0-0.1c0,0,0,0,0-0.1
			c0,0,0-0.1,0-0.1v-0.1c-0.1-0.3-0.3-0.7-0.4-1c0-0.1,0-0.1,0-0.2c0.2-0.2,0.3-0.4,0.4-0.5c-0.3-0.2-0.5-0.4-0.7-0.5
			c-0.4-0.8-0.7-1.5-1.1-2.3c-0.5,0.4-0.9,0.7-1.4,1.1c0-0.1,0-0.2-0.1-0.3c0.4-0.3,0.8-0.6,1.3-1c0.5-1.5,1-3.1,1.5-4.6
			c0.2-0.4,0.3-0.7,0.4-1.1v-0.1c0,0,0.1-0.1,0.1-0.1c2.8-1.3,5.4-2.7,8.1-4.2c0.2-0.5,0.5-1,0.7-1.6c0-0.2,0-0.5,0-0.7
			c0.1-1,0.5-1.9,0.9-2.8c0.2-0.4,0.3-0.7,0.5-1.1c0.1-0.2,0.2-0.4,0.2-0.6c0.2-0.4,0.3-0.8,0.4-1.1c0.1-0.4,0.2-0.7,0.2-1.1
			c0-0.2,0-0.5,0-0.7c0-0.6-0.1-1.2-0.4-1.9c0.1,0,0.1,0,0.2,0.1c0,0,0-0.1,0-0.1c0.1,0,0.2,0.1,0.3,0.1c0,0.7,0.1,1.3,0.1,1.8
			c0,0.2,0,0.5,0,0.7c0,0.4-0.1,0.7-0.2,1.1c-0.1,0.4-0.2,0.8-0.4,1.1c-0.1,0.2-0.2,0.4-0.2,0.6c-0.2,0.4-0.3,0.7-0.5,1.1
			c-0.4,0.9-0.8,1.8-0.9,2.7c0,0-0.1,0-0.1,0.1c0,0.2,0,0.5,0,0.7c0.1,0.2,0.3,0.3,0.4,0.5c-0.1-0.1-0.3-0.2-0.4-0.4
			c-0.2,0.5-0.5,1-0.7,1.6c0.6,0.9,1.3,1.8,1.9,2.7c-0.1,0-0.2,0-0.3,0c-0.6-0.9-1.3-1.7-1.8-2.6c-2.7,1.4-5.4,2.8-8.1,4.3V51
			c-0.1,0.4-0.2,0.7-0.3,1.1c0.1,0,0.3,0,0.4,0c-0.5,1.5-1,3.1-1.5,4.5c0.4,0.8,0.7,1.5,1.1,2.3c0.3,0.2,0.5,0.4,0.8,0.6
			c-0.2,0.2-0.3,0.4-0.5,0.6c0.1,0.3,0.3,0.7,0.4,1v0.1c1.7,0.2-1.3-3.7,1.8-2.7c0.1,0,0.1,0.1,0.2,0.1c-0.1,0-0.1,0-0.2-0.1
			c0,0-0.1,0-0.1,0c0,0,0,0,0,0c-2.7-0.6,0.1,3-1.8,2.8v0.1c0,0.1,0,0.2,0,0.2c0,0.4,0,0.8,0,1.2c-0.4,7.3,3.3,11.5,10,13.6
			c0.5,0.1,1,0.1,1.5,0.2c0.1,0,0.4,0,0.7,0.1c-0.3,0-0.5-0.1-0.8-0.1c-0.5-0.1-1-0.1-1.5-0.2C39.6,74.3,35.9,70.1,36.3,62.8z
			 M29.3,32.5C29.3,32.5,29.3,32.5,29.3,32.5c0.2-0.1,0.3-0.2,0.4-0.3c-0.2-0.1-0.3-0.2-0.4-0.3c0,0,0-0.1,0-0.1
			c0.2,0.1,0.3,0.3,0.5,0.4C29.6,32.3,29.5,32.4,29.3,32.5z M76.1,47.2c0-0.1,0-0.2,0-0.3c0,0.5,0.1,0.9,0.1,1.4
			c0.1,1.2,0.1,2.4,0.2,3.6c0,0,0,0.1,0,0.1c0,0,0,0,0,0c-0.1-1.6-0.3-3.3-0.4-4.9c0-0.1,0.1-0.1,0.1-0.2c0,0,0,0,0,0
			C76.1,47,76.1,47.1,76.1,47.2z M78,43.3C78,43.3,78,43.3,78,43.3C78,43.3,78.1,43.3,78,43.3C78.1,43.3,78.1,43.4,78,43.3
			C78,43.3,78,43.3,78,43.3z M80.5,51.1c-0.3,0.1-0.5,0.3-0.8,0.4C80,51.4,80.2,51.2,80.5,51.1z M71.1,56.6c0.7-0.6,0.9-1.2,1-1.9
			c0-0.1,0-0.3,0-0.4c0-0.1,0-0.3,0-0.4v0c0-0.1,0-0.3-0.1-0.4c0-0.3-0.1-0.5-0.2-0.8c-0.1-0.5-0.3-1-0.4-1.6c0-0.1,0-0.2,0-0.3
			c0-0.1,0.1-0.1,0.1-0.2c0.1,0.9,0.4,1.9,0.6,2.9c0,0.1,0,0.3,0.1,0.4c0.1,0.1,0,0.3,0,0.4c0,0.1,0,0.3,0,0.4
			C72.1,55.3,71.9,56,71.1,56.6c0.1,0,0.1,0.1,0.1,0.1C71.2,56.7,71.1,56.6,71.1,56.6z M40.1,51.2c0.4,0.7,1,1.7,1.1,1.8
			c0,0,0,0-0.1,0c0,0,0,0,0.1,0c0,0,0,0,0,0c1.6-0.8,3.2-1.8,4.7-2.7c-0.2-0.4-0.4-0.7-0.5-1c0,0,0.1,0,0.1,0c0.2,0.4,0.4,0.7,0.5,1
			c1.7,0.4,1,1.5,0.5,2.4c-0.4,0.8-0.6,1.5,0.6,1.8c0,0-0.1,0-0.1,0c0,0,0,0-0.1,0.1c-1.1-0.4-0.9-1.1-0.5-1.8c0.5-1,1.3-2-0.5-2.4
			c-1.6,0.9-3.1,1.9-4.7,2.7c-0.1,0-0.8-1.2-1.2-1.9C40,51.2,40.1,51.2,40.1,51.2z M41.7,37.1C41.7,37.1,41.7,37.1,41.7,37.1
			c-1-0.3-1.9-0.6-2.8-1c0,0,0,0,0,0C39.9,36.4,40.8,36.7,41.7,37.1z M36.9,39.5c0.1,0,0.2,0.1,0.3,0.1c0,0,0.1,0,0.1,0
			c0.1,0,0.3,0,0.4,0c0.6,0,1.4,0,2.2,0c1,0,1.9,1.3,2.9,2c0,0-0.1,0-0.1,0.1c-0.9-0.7-1.8-1.8-2.7-1.9c-0.8,0-1.6,0-2.2,0
			c-0.4,0-0.7,0-0.9-0.1c-0.1-0.1-0.2-0.1-0.3-0.3c0,0,0,0,0,0C36.7,39.4,36.8,39.5,36.9,39.5z M44.5,34.1c-0.2-0.1-0.4-0.2-0.7-0.3
			c0,0,0,0,0,0C44.2,33.8,44.3,33.9,44.5,34.1C44.6,34,44.5,34,44.5,34.1C44.5,34,44.5,34,44.5,34.1z M37.7,37.1
			c0.3-0.2,0.5-0.2,0.7-0.2c-0.1,0.1-0.1,0.1-0.2,0.2C38,37.1,37.9,37.1,37.7,37.1c-0.1,0.1-0.3,0.2-0.4,0.2
			C37.4,37.2,37.6,37.1,37.7,37.1z M39.9,44.9c0.4-0.6,0.7-1.2,1.1-1.8c0,0,0.1,0,0.1,0C40.7,43.7,40.4,44.3,39.9,44.9
			c0.1,0.3,0.2,0.5,0.2,0.8c0,0-0.1,0-0.1,0.1C40,45.5,39.9,45.2,39.9,44.9z M46.5,32c-0.2,0-0.5,0.1-0.8,0.1
			c-0.4,0.1-0.8,0.2-1.2,0.2c-0.1,0-0.3,0-0.4,0c-0.2,0-0.4,0-0.6-0.1l-0.1-0.1c-0.1-0.1-0.2-0.2-0.3-0.3c-0.5-0.6-1-1.3-1.6-1.9
			c-0.4,0-0.7,0-1.1,0c-0.2,0.1-0.3,0.2-0.5,0.3c-0.6,0.4-1.3,0.9-1.9,1.3c-0.1,0-0.3,0-0.4,0c-0.8,0.1-1.6,0.3-2.3,0.4
			c-0.4,0.1-0.8,0.2-1.2,0.3c-0.1,0-0.2,0-0.3,0c-0.8-0.1-1.5-0.2-2.2-0.3c0,0,0-0.1,0-0.1c0.8,0.1,1.5,0.2,2.2,0.3c0,0,0.1,0,0.1,0
			c0.1,0,0.1,0,0.2,0c0.4-0.1,0.8-0.2,1.2-0.3c0.8-0.1,1.6-0.3,2.3-0.4c0-0.2-0.1-0.3-0.1-0.5c0.1,0.2,0.1,0.3,0.2,0.5
			c0.1,0,0.3,0,0.4,0c0.1-0.7,0.2-1.3,0.3-1.9c-0.5,0.1-1,0.2-1.5,0.3c0,0-0.1,0-0.1,0c0.5-0.1,1-0.2,1.5-0.3c0,0,0.1,0,0.1,0
			c0,0,0,0,0,0c-0.1,0.6-0.2,1.3-0.3,1.9c0.6-0.4,1.3-0.9,1.9-1.3c0.2-0.1,0.3-0.2,0.5-0.3c0.4,0,0.7,0,1.1,0c0.5,0.6,1,1.3,1.6,1.9
			c0.1,0.1,0.2,0.2,0.3,0.3l0.1,0.1c0.1,0.1,0.3,0.1,0.5,0.1c0.1,0,0.2,0,0.4,0c0.4,0,0.8-0.2,1.2-0.2C46,31.9,46.2,31.9,46.5,32
			c0.4-0.1,0.7,0,0.9,0.2c0,0,0.1,0.1,0.1,0.1c0,0,0,0,0,0.1c0,0.1,0.1,0.3,0,0.4C47.5,32.1,47.1,31.9,46.5,32z M40.7,12.7
			c0.4,0,0.7-0.1,1-0.1c1.4-0.1,2.9,0,4.1-0.7c0.4,0,0.8,0,1.2,0c2.3,0.3,4.7-1.1,6.9,0c-2.1-0.9-4.6,0.4-6.9,0.1
			c-0.4,0-0.8,0-1.2,0c0,0,0,0.1,0,0.1c-1.2,0.7-2.7,0.6-4.1,0.7c-0.4,0-0.7,0.1-1,0.1s-0.7,0.2-1,0.3c-0.5,0.3-1.1,0.7-1.5,1.4
			c0,0-0.1,0-0.1,0c0.4-0.8,1-1.3,1.6-1.6C40,12.9,40.3,12.7,40.7,12.7z M58.2,13.5c2.5,0.9,5,1.7,7.4,2.6
			C63.1,15.2,60.6,14.4,58.2,13.5c-0.9,0-1.8-0.1-2.6-0.1C56.5,13.4,57.4,13.5,58.2,13.5z M55.6,13.3C55.6,13.4,55.6,13.4,55.6,13.3
			c-0.3-0.1-0.6-0.2-1-0.3C54.9,13.1,55.2,13.2,55.6,13.3z M70.7,44.1c0,0,0,0.1,0,0.1c-1.3-2.2-2.4-4.3-3.5-6.3
			C68.4,40,69.5,42,70.7,44.1z M69.5,45.2c0.2,0.2,0.3,0.5,0.5,0.7C69.8,45.7,69.7,45.4,69.5,45.2C69.5,45.2,69.5,45.2,69.5,45.2z
			 M50.2,59.8c-1.7,3.7-8.3-2-8.3,3.9C41.9,57.7,48.5,63.5,50.2,59.8z M41.9,58.4c-0.1-0.1-0.3-0.2-0.4-0.3c-0.1-1-0.2-1.9-0.4-2.8
			c0.1,0,0.3,0,0.4,0C41.6,56.4,41.7,57.3,41.9,58.4z M43.3,57.9c0.2,0,0.5,0,0.7,0c0.4,0,0.8,0,1.1,0c0.3,0,0.5,0,0.7,0
			c0.1-0.6,0.1-1.4,0.1-2.1c0,0.7,0,1.4,0,2.1c0.2,0.1,0.4,0.2,0.5,0.2c0.1,0,0.4,0.2,0.5,0.2c1.7-0.2,3.3-0.5,4.8-0.9
			c0,0-0.1-0.1-0.1-0.1c0.1,0,0.1,0.1,0.1,0.1c-1.6,0.4-3.1,0.7-4.7,1.1c-0.2-0.1-0.4-0.2-0.5-0.2c-0.2-0.1-0.4-0.2-0.5-0.2
			c-0.2,0-0.5,0-0.7,0c-0.4,0-0.8,0-1.1,0s-0.5,0-0.7,0c-0.3-0.1-0.5-0.1-0.7-0.3C43,57.9,43.2,57.9,43.3,57.9z M63.3,30.5
			C63.3,30.5,63.3,30.6,63.3,30.5c0,0.1,0.1,0.2,0.1,0.2c-1.6,0.1-3.2,0.3-4.8,0.4c0,0,0-0.1,0-0.1C60.2,30.9,61.8,30.7,63.3,30.5
			c-1.6,0.2-3.2,0.4-4.7,0.5c0,0,0-0.1,0-0.1C60.2,30.8,61.8,30.6,63.3,30.5z M63.5,39.8c-0.3,0.3-0.6,0.5-1,0.6
			c-1,0.4-2.1,0.6-2.8,0.8c-0.6,0.2-1.1,0.4-1.4,0.6c0.4-0.2,0.9-0.5,1.5-0.7c0.8-0.3,1.9-0.4,2.8-0.8C63,40.1,63.3,39.9,63.5,39.8
			c0.2-0.2,0.2-0.2,0.3-0.3C63.7,39.6,63.6,39.7,63.5,39.8z M58.8,32.9c0.1,0,0.1,0,0.2,0c0,0,0.1,0,0.1,0c0.1,0.2,0.2,0.4,0.4,0.6
			c0.2,0,0.4,0,0.6-0.1c0.1,0,0.1,0,0.2,0.1c0.2,0.1,0.5,0.1,0.7,0.2l0.4,0.3c0.5,0.3,1.1,0.5,1.6,0.7c0.3,0.3,0.5,0.5,0.8,0.8
			c0,0,0,0,0,0c0,0,0,0.1,0,0.1c-0.3-0.3-0.6-0.6-0.9-0.9c-0.5-0.2-1.1-0.4-1.6-0.7c-0.1-0.1-0.3-0.2-0.4-0.3
			c-0.2-0.1-0.5-0.1-0.7-0.2c-0.3,0-0.5,0-0.8,0.1c0,0,0,0,0,0c0,0,0.1,0,0.1-0.1c0,0-0.1,0-0.1,0.1c-0.1-0.2-0.3-0.4-0.4-0.6
			C58.9,33,58.9,33,58.8,32.9c-0.2,0.1-0.4,0.1-0.5,0c-0.7-0.1-1.3-0.1-2-0.1c-0.5-0.1-1.3-0.4-1.7-0.4c0-0.1,0.1-0.1,0.1-0.2
			c0.2-0.2,1.2,0.2,1.9,0.4c0.6,0,1.1,0,1.7,0c0,0.1,0,0.1,0,0.2C58.5,32.9,58.6,32.9,58.8,32.9z M62.1,38.2
			c0.1,0.1,0.2,0.3,0.3,0.5c-0.1,0-0.2,0-0.3,0.1c-0.1-0.1-0.1-0.2-0.2-0.4c-0.6-0.6-0.9-1.1-0.8-1.4c0.1-0.2,0.2-0.4,0.6-0.6
			c-0.2,0.2-0.3,0.3-0.4,0.4C61.2,37.2,61.5,37.6,62.1,38.2z M62.4,36c-1.8-0.4-3.5-0.8-5.4-1.1c1.8,0.3,3.7,0.7,5.5,1
			C62.4,35.9,62.4,35.9,62.4,36z M53.4,36.6c0-0.1,0.1-0.1,0.1-0.2C53.5,36.4,53.4,36.5,53.4,36.6C53.4,36.6,53.4,36.6,53.4,36.6z
			 M63.6,36.1c0-0.1,0.1-0.3,0.1-0.4C63.8,35.8,63.8,35.9,63.6,36.1C63.7,36.1,63.7,36.1,63.6,36.1z M52.4,42.6
			c0.7,0.2,2.3-0.3,1.7,1.5c0.3,0.4,0.5,0.7,0.7,1.1c0,0,0,0,0,0.1c0,0,0-0.1,0.1-0.1c0,0,0,0,0,0c0,0-0.1,0.1-0.1,0.1
			c0,0,0-0.1,0-0.1c-0.3-0.4-0.5-0.8-0.8-1.2c0.6-1.8-0.9-1.3-1.7-1.5c-0.3-0.1-0.7,0-1,0.1C51.7,42.6,52.1,42.5,52.4,42.6z
			 M53,56.2c-0.1-1.1-1.6-0.1-2-0.7C51.4,56.1,53,55,53,56.2z M59.4,62C59.4,62,59.4,62,59.4,62c-0.5,0.3-0.9,0.4-1.4,0.5
			c0,0,0,0,0,0C58.5,62.3,58.9,62.2,59.4,62C59.4,62,59.4,62,59.4,62z M45.6,62.8c-1.2,0.7-2.3,1.3-3.5,1.9c0,0,0-0.1,0-0.1
			C43.2,64,44.4,63.4,45.6,62.8c1.1-0.1,2.3-0.1,3.4-0.2c0.1,0,0.3,0,0.4,0c0.3-0.1,0.5-0.2,0.8-0.3c0.9-0.4,1.8-0.9,2.6-1.3
			c0.3-0.2,0.5-0.6,0.8-1c-0.3,0.4-0.5,0.8-0.8,1.1c-0.9,0.4-1.8,0.9-2.6,1.3c0.2,0.2,0.5,0.4,0.7,0.7c0,0,0,0,0,0
			c-0.2-0.2-0.4-0.4-0.6-0.6c-0.3,0.1-0.5,0.2-0.8,0.3c0,0-0.1,0-0.1,0s-0.1,0-0.1,0c0,0-0.1,0-0.2,0c-1.1,0-2.3,0.1-3.4,0.1
			c-0.9,1-1.7,2-2.6,3.1c0,0-0.1-0.1-0.1-0.1C43.9,64.9,44.7,63.9,45.6,62.8z M58.6,59.8c-0.2,0.5-0.5,1-0.6,1.5
			C58.1,60.8,58.4,60.3,58.6,59.8z M54.3,63.9C54.3,63.9,54.3,63.9,54.3,63.9c-0.2,0.1-0.3,0.2-0.5,0.3C54,64.1,54.2,64,54.3,63.9
			C54.3,63.9,54.3,63.9,54.3,63.9z M56.7,62.8c-0.1,0.1-0.2,0.3-0.2,0.4C56.5,63.1,56.6,63,56.7,62.8C56.7,62.9,56.7,62.8,56.7,62.8
			z M54,71.5c0.4-0.6-1.2-1.8-0.6-2C53.2,69.9,54.6,71,54,71.5z M49.8,68.7c0.4-0.8,0.8-1.5,1.1-2.2c0,0,0,0.1,0.1,0.1
			C50.6,67.3,50.3,67.9,49.8,68.7z M46.3,69.3C46.3,69.3,46.2,69.4,46.3,69.3L46.3,69.3z M46.3,69.3c1.1-0.1,2.1-0.2,3.3-0.3
			c-0.4-0.5-0.8-1.4-1.3-1.4c-0.4,0-0.8,0-1.2,0.1c0.4-0.1,0.8-0.1,1.3-0.1c0.5,0,0.9,0.9,1.3,1.4C48.5,69.1,47.4,69.2,46.3,69.3
			C46.3,69.3,46.3,69.3,46.3,69.3z M55,65.2c-0.3,0.2-0.6,0.4-0.9,0.5c-0.6,0.2-1.2,0.1-2-0.1c-0.3,0-0.5,0-0.8,0
			c-0.4-0.1-0.7-0.2-0.8-0.3c0,0-0.1-0.1-0.1-0.1c0.2,0.1,0.4,0.2,0.8,0.3c0.1-0.8,0.1-1.6,0.1-2.4c0,0.8,0,1.6,0,2.3
			c0.3,0,0.5,0,0.8,0c0.1-0.1,0.3-0.2,0.4-0.3c-0.2,0.1-0.3,0.2-0.5,0.4c0.8,0.3,1.5,0.3,2,0.1c0.3-0.1,0.6-0.3,0.9-0.5
			c0.2-0.1,0.3-0.2,0.5-0.4c-0.1,0.1-0.2,0.3-0.4,0.4c0.7-0.5,1.2-1.3,1.7-2.3c0,0,0.1,0,0.1,0C56.3,63.7,55.8,64.6,55,65.2z
			 M52.8,54.2C52.8,54.2,52.8,54.2,52.8,54.2c-0.6,0.4-1.2,0.8-1.9,1.2c0,0,0,0,0-0.1C51.6,55,52.1,54.6,52.8,54.2
			c0.6-0.6,1.1-0.9,1.7-0.9C54,53.4,53.4,53.6,52.8,54.2z M50.2,54.5C50.2,54.6,50.2,54.6,50.2,54.5c-0.7,0.8-0.9,1.3-0.9,1.6
			c0,0.2,0,0.3,0.1,0.4c0,0-0.1,0-0.1-0.1c-0.1-0.1-0.2-0.2-0.1-0.4c0-0.3,0.3-0.8,0.9-1.5C50.1,54.5,50.2,54.5,50.2,54.5z
			 M42.6,59.8L42.6,59.8L42.6,59.8L42.6,59.8z M41.9,64.3C41.9,64.3,41.9,64.4,41.9,64.3c-1.1-1.1-2.2-2.4-3.3-3.6
			C39.8,61.9,40.9,63.1,41.9,64.3z M60.6,56.6c-0.4-0.3-0.8-0.5-1.3-0.8c-0.1,0.1-0.2,0.1-0.3,0.2c0.1-0.1,0.3-0.2,0.4-0.3
			c0.4,0.3,0.8,0.5,1.2,0.8C60.6,56.5,60.6,56.5,60.6,56.6C60.6,56.5,60.6,56.6,60.6,56.6z M60.2,54.5c0,0-0.1,0-0.1,0
			c0.1-0.5,0.3-1,0.4-1.6c0,0,0,0.1,0.1,0.1C60.5,53.5,60.3,53.9,60.2,54.5z M57.1,54.6c-0.4,0.3-0.8,0.6-1.1,0.9c0,0,0,0.1,0,0.1
			s0,0.1,0,0.1c-1,0.4-2.1,0.8-3.1,1.2c0,0,0-0.1,0-0.1c1-0.4,2.1-0.8,3.1-1.2c-0.1,0-0.1-0.1,0-0.2c0,0,0,0-0.1,0
			C56.3,55.1,56.7,54.8,57.1,54.6c-0.4-0.4-0.8-0.7-1.1-0.9s-0.6-0.3-1-0.4c0.4,0.1,0.7,0.2,1.1,0.4C56.4,53.9,56.8,54.2,57.1,54.6
			c0.7-0.1,1.3-0.1,2-0.2c0.1,0,0.1,0.1,0.2,0.1c0,0,0.1,0,0.1,0C58.6,54.5,57.9,54.5,57.1,54.6z M54.7,49.3
			c0.7,0.1,1.5,0.8,2.3,0.8C56.3,50.1,55.5,49.4,54.7,49.3z M51.1,46.4c1.3-0.2,2.5-0.5,3.7-0.3C53.6,46,52.3,46.3,51.1,46.4z
			 M63.3,29.1c0.3,0,0.6-0.1,0.9-0.1C63.9,29,63.6,29,63.3,29.1C63.3,29.1,63.3,29.1,63.3,29.1z M63,29C63,29,63,29,63,29
			C63,29,63,29,63,29z M60,25.1c-0.1-0.1-0.3-0.2-0.4-0.2c-0.9-0.3-2.2,0.1-3.3,0.2c-0.2,0-0.4,0-0.6,0.1c-0.6,0-1.2-0.1-1.6-0.5
			c-3.7,4.2-10.5-0.8-13.7,4.8c0,0,0,0,0-0.1c0,0-0.1,0-0.1,0c0,0,0,0,0,0c3.2-5.6,10.1-0.5,13.7-4.8c0.4,0.4,0.9,0.5,1.6,0.5
			c0.2,0,0.4,0,0.6-0.1c1.1-0.2,2.4-0.6,3.3-0.2C59.6,24.9,59.8,24.9,60,25.1c0-0.1,0,0,0.1,0.1C60.1,25.2,60,25.1,60,25.1z
			 M39.6,25c0,0,0.1,0.1,0.1,0.1c-0.3,0.2-0.4,0.5-0.6,0.5C39.3,25.5,39.4,25.3,39.6,25z M39.2,24.7c0.1,0,0.1,0.1,0.2,0.1
			C39.3,24.8,39.2,24.7,39.2,24.7z M38.6,25.3c0-0.1,0-0.3,0.1-0.4C38.7,25.1,38.6,25.2,38.6,25.3z M49.7,14.1
			c-1.1,0.4-2.3,1-3.3-0.1C47.3,15,48.5,14.4,49.7,14.1z M48.5,19c-1.2,0.2-2.2,1.1-3.3,1.7c0.7,0.5,1.5,1.3,2.1,1.4c0,0,0,0,0,0
			c-0.7,0.1-1.5-0.9-2.2-1.4C46.2,20.1,47.3,19.2,48.5,19c0.1,0,0.2,0,0.4,0C48.7,19,48.6,19,48.5,19z M45,13.3
			c-0.9,0.4-1.7,0.8-2.6,1c0.3,0,0.6,0.1,0.9,0.1c-0.1,0-0.1,0-0.2,0c-0.3,0-0.6-0.1-0.9-0.1c0,0,0.1,0,0.1,0
			C43.2,13.9,44.1,13.5,45,13.3C45,13.2,45,13.2,45,13.3z M41.1,14.3c0,0.1,0,0.1,0,0.2C41.1,14.4,41.1,14.4,41.1,14.3
			C41.1,14.3,41.1,14.3,41.1,14.3z M51.1,13.9c-0.1,0-0.3,0-0.4,0c0.2,0,0.4,0,0.6,0C51.2,13.9,51.2,13.9,51.1,13.9z M41.4,17.1
			c0.3-0.2,0.4-0.4,0.5-0.6c-0.1,0.2-0.2,0.4-0.5,0.7c-4,3.3-6,7.8-6.5,12.8c-0.2,0.1-0.4,0.1-0.6,0.2c0.2-0.1,0.4-0.1,0.6-0.2
			C35.4,24.9,37.4,20.4,41.4,17.1z M35.5,30C35.5,30,35.5,30,35.5,30c0.2,0,0.4,0,0.6,0c0,0,0,0.1,0,0.1C35.9,30,35.8,30,35.5,30z
			 M31.6,31.3C31.6,31.3,31.6,31.2,31.6,31.3c0.2-0.1,0.3-0.1,0.5-0.2C31.9,31.1,31.8,31.2,31.6,31.3z M47.5,33.3
			c0-0.2,0.1-0.4,0.1-0.5c0,0.2,0,0.4-0.1,0.7C47.5,33.4,47.5,33.4,47.5,33.3z M50.5,33c0.1-1.8-0.2-4.2,1.3-5
			c-1.1,0.9-0.8,3.1-1,4.8C50.7,33.9,51,35,51.2,36c-0.1,0-0.2-0.1-0.3-0.1C50.7,34.9,50.4,33.9,50.5,33z M48.7,43.5
			c0.3,0.1,0.5,0.2,0.8,0.3c-0.3-0.1-0.6-0.2-0.9-0.3c-0.3-0.1-0.7-0.2-1-0.2c-0.6-0.1-1.2,0-1.8,0.3c0.6-0.4,1.3-0.4,1.9-0.3
			C48,43.3,48.4,43.4,48.7,43.5z M46.3,51.8L46.3,51.8c0-0.2,0.1-0.2,0.2-0.2C46.4,51.6,46.3,51.7,46.3,51.8
			C46.3,51.7,46.3,51.8,46.3,51.8z M41.6,59.7c0.4,0.1,0.7,0.1,1,0.1c0,0,0,0,0,0C42.2,59.8,41.9,59.8,41.6,59.7
			c-1.1-0.2-2.1-0.5-3.1-1c0,0,0,0,0-0.1C39.5,59.1,40.6,59.5,41.6,59.7z M49.2,80.4c0-0.1-0.9-0.6-1.4-0.9
			C48.3,79.8,49.3,80.3,49.2,80.4z M52.1,81.9c0.1,0.1,0.1,0.2,0.2,0.4C52.2,82.2,52.2,82.1,52.1,81.9z M61.2,65.5
			C61.2,65.5,61.2,65.6,61.2,65.5c-0.9,0-1.4-0.1-1.7-0.3c0.3,0.2,0.8,0.3,1.6,0.1c0.1-1.4,0.2-2.8,0.2-4.2c0.2-1.3,0.4-2.6,0.6-4
			c0,0,0.1-0.1,0.1-0.3c0,0.2,0.1,0.3,0.1,0.5c-0.1-0.3-0.1-0.7-0.3-1c0-0.1,0-0.1-0.1-0.2c0-0.1-0.1-0.1-0.1-0.1
			c0.1,0,0.2,0.1,0.2,0.1c0,0,0.1,0.1,0.1,0.2c0.1,0.3,0.2,0.7,0.3,1c0,0-0.1,0-0.1,0c-0.2,1.2-0.4,2.5-0.6,3.8
			c0,0.1-0.1,0.2-0.1,0.2C61.3,62.7,61.2,64.1,61.2,65.5z M63.2,58.5c0-0.3,0-0.5,0-0.8c0.2-0.4,0.3-0.8,0.5-1.2c0-0.4,0-0.8,0-1.2
			c-0.1,0.4-0.3,0.8-0.4,1.2c0,0-0.1,0-0.1,0c0.1-0.4,0.3-0.8,0.4-1.2c0-0.1,0-0.1,0-0.2c0-0.3,0-0.6,0-0.9c-1.4-2.1-3-4.1-4.5-6.1
			c0,0,0,0,0-0.1c-1.1-1.3-2.3-2.7-3.4-4c0,0,0.1-0.1,0.1-0.1c1.1,1.3,2.3,2.7,3.4,4c1.5,2,3,4,4.5,6.1c0,0.1,0,0.2,0,0.2
			c0-0.1,0-0.2,0-0.2c0,0,0.1,0.1,0.1,0.1c0,0.1,0,0.1,0,0.2c0,0.3,0,0.6,0,0.9c0,0.1,0,0.1,0,0.2c0,0.4,0,0.8,0,1.2
			c-0.2,0.4-0.3,0.8-0.5,1.2C63.3,58.1,63.3,58.3,63.2,58.5c0.8,1.3,1.4,1.9,2,2.3C64.5,60.5,63.9,59.8,63.2,58.5
			C63.2,58.6,63.2,58.5,63.2,58.5z M70.6,46.9c0.2,0.2,0.3,0.5,0.5,0.7c-0.1-0.9-0.3-1.8-0.4-2.8c0,0,0,0,0,0
			c0.1,0.9,0.3,1.8,0.4,2.8c0,0,0,0,0,0.1C70.9,47.4,70.8,47.1,70.6,46.9z M70.9,40.9c0-0.2,0.1-0.4,0.1-0.5
			C71,40.6,70.9,40.8,70.9,40.9z M68.3,35.7c-0.2-0.1-0.4-0.1-0.6-0.1l0,0C67.8,35.6,68.1,35.7,68.3,35.7c0.4,0.1,0.8,0.2,1.1,0.4
			C69,36,68.7,35.9,68.3,35.7z M66.9,28.5c0.3,0,0.6-0.1,0.8-0.1c-1.8-4.4-3-9.4-7.4-12c-2.4-1.4-5.6-1.7-8.4-2.5c0,0,0.1,0,0.1,0
			c2.8,0.8,5.9,1.1,8.4,2.5c4.4,2.6,5.5,7.6,7.4,12C67.5,28.4,67.2,28.5,66.9,28.5z M65.8,16.1c-0.1,0-0.1,0-0.2,0h0
			c0-0.6,0-1.1,0-1.7c0,0,0.1,0,0.1,0C65.7,15,65.7,15.6,65.8,16.1z M30.7,18.9c0,0.1,0,0.2,0,0.3c0,0,0,0,0,0
			C30.7,19.1,30.7,19,30.7,18.9c0.1-0.1,0.1-0.1,0.2-0.2C30.8,18.8,30.8,18.8,30.7,18.9z M30.7,19.2c0.1,1.9,0.1,3.8,0.2,5.8
			C30.8,23.1,30.8,21.2,30.7,19.2C30.7,19.2,30.7,19.2,30.7,19.2z M36.6,37.3c-0.8,0.2-1.6,0.5-2.5,0.7
			C34.9,37.8,35.7,37.5,36.6,37.3z M35.7,62C35.7,62,35.8,62,35.7,62C35.7,62,35.7,62,35.7,62C35.7,62,35.7,62,35.7,62z M46,84
			c0.8,0.9,3.7,1.5,4.7,0.9c0.2-0.1,0.3-0.3,0.5-0.4c-0.1,0.1-0.3,0.2-0.5,0.4C49.9,85.6,46.8,84.9,46,84z M60,86.4
			c-0.7,0.9-0.6,1.2-0.2,1.3C59.3,87.7,59.1,87.4,60,86.4c0.4-0.7,1-1.1,1.7-1.4C61.1,85.3,60.5,85.8,60,86.4z M70,81.5
			C70,81.5,70,81.5,70,81.5c-0.6,1-1.4,1.6-2.3,1.9c0.8-0.4,1.6-1,2.2-1.9C69.9,81.5,70,81.5,70,81.5z M70.6,59.9
			C70.6,59.9,70.6,59.9,70.6,59.9C70.6,59.9,70.6,59.9,70.6,59.9C70.6,59.9,70.6,59.9,70.6,59.9c0.1-0.3,0.1-0.6,0.2-0.9
			c0.1-0.2,0.1-0.4,0.2-0.6c0.1,0,0.1-0.1,0.2-0.1C71.1,58.5,71,58.7,71,59c-0.1,0.3-0.2,0.6-0.2,0.9c-0.3,1.5-0.3,2.9,1.7,3.4
			C70.3,62.9,70.2,61.5,70.6,59.9z M73.3,38.8c-1.2-3-2.5-6-3.7-9c-0.4-1-0.8-2-1.2-3c0,0,0-0.1,0-0.1c0.4,1,0.8,2,1.2,3
			c0.6,1.5,1.2,3,1.9,4.5S72.7,37.2,73.3,38.8c-1.2-4.6-2.3-9.2-3.5-13.7c0-0.2,0-0.4,0-0.7c-0.9-2.5-1.8-4.9-2.6-7.4
			c-0.4-0.3-0.8-0.5-1.1-0.8c0.1,0,0.1,0,0.1,0.1c0.4,0.3,0.7,0.5,1.1,0.7c0,0-0.1,0-0.1,0c0.9,2.5,1.8,4.9,2.6,7.4
			c0-0.2,0-0.3-0.1-0.5c0.1,0.1,0.1,0.3,0.2,0.4c0-0.2-0.1-0.3-0.2-0.4c-0.1-2.2,0.8-4.8-1.2-6.2c2.5,1.6,1.1,4.5,1.5,6.9
			c0,0.3,0,0.5,0,0.8c1.2,4.5,2.3,9.1,3.5,13.6c0.3,0.8,0.6,1.5,0.8,2.3c0.1,0.3,0.2,0.5,0.4,0.8c-0.1,0-0.1,0-0.2-0.1
			c-0.1-0.3-0.2-0.5-0.4-0.8C73.8,40.3,73.5,39.6,73.3,38.8z M76.5,42.5C76.5,42.5,76.5,42.5,76.5,42.5c-3,1.7-1.9,4.4-1.6,6.9
			c0,0.1-0.1,0.1-0.1,0.2C74.5,47,73.4,44.3,76.5,42.5z M76.8,53.9c-0.1-0.4-0.2-0.8-0.3-1.3c0,0,0,0,0,0c0,0,0,0,0,0c0,0,0,0,0,0
			C76.6,53,76.7,53.4,76.8,53.9c0.4-0.4,0.8-0.7,1.3-1.1C77.7,53.2,77.2,53.6,76.8,53.9z M80.3,49c0.4-0.1,0.8-0.1,1-0.2
			C81.1,49,80.7,49,80.3,49z M81.4,46.3c0,0,0,0.1,0,0.1c-0.5,0.7-0.9,1.3-1.3,2c0-0.1,0-0.1,0-0.2C80.6,47.6,81,46.9,81.4,46.3z
			 M30.9,18.5C30.9,18.5,30.9,18.5,30.9,18.5c-0.1-0.1-0.2-0.2-0.3-0.2c0,0,0,0,0.1,0C30.8,18.3,30.8,18.4,30.9,18.5z M28.6,36.2
			c0.1-0.4,0.1-0.8,0.2-1.3c0-0.1,0.1-0.2,0.1-0.3c0.1-0.2,0.1-0.3,0.2-0.5c0-0.3,0-0.5,0.1-0.8c0,0.2-0.1,0.5-0.1,0.8
			c0.3-0.2,0.7-0.3,1-0.4c-0.3,0.1-0.6,0.2-0.9,0.4c-0.1,0.2-0.1,0.3-0.2,0.5c0,0.1-0.1,0.2-0.1,0.3c0.7,0.3,1.4,0.7,2.1,1
			c0,0,0,0.1,0,0.1c-0.7-0.3-1.5-0.7-2.2-1C28.7,35.4,28.7,35.8,28.6,36.2z M29.4,40.5c0.1-0.1,0.1-0.1,0.2-0.2
			c0.4,0.2,0.8,0.6,1.1,0.4c0.5-0.2,0.8-0.8,1.3-1.2c0,0-0.1,0-0.1,0c0.3-0.4,0.5-0.9,0.8-1.3c0,0,0.1,0,0.1,0
			c-0.3,0.5-0.6,1-0.9,1.5c-0.4,0.4-0.8,1-1.3,1.2C30.3,41,29.8,40.6,29.4,40.5z M31.1,39.2c0.2,0.1,0.4,0.1,0.6,0.2
			C31.5,39.4,31.3,39.3,31.1,39.2z M32.4,63.3c-0.1,0-0.3,0-0.4,0c0.1,0,0.2,0,0.3,0c1.1-0.3,2.1-1.3,3.2-1.3
			C34.4,62,33.4,63.1,32.4,63.3z M36.2,73.7c0.5,1.2,1,2.4,1.5,3.7c0,0,0,0.1-0.1,0.1c-0.3,0-0.6,0.1-0.9,0.2c0,0,0,0,0,0
			c0.3-0.1,0.7-0.2,0.9-0.3C37.2,76.2,36.8,75,36.2,73.7C36.2,73.8,36.2,73.7,36.2,73.7z M38.5,97.9c0.3-0.2,0.7-0.5,1-0.5
			c0,0,0,0,0,0C39.2,97.4,38.9,97.7,38.5,97.9c0.4,0.1,0.7,0.3,1.1,0.4C39.2,98.2,38.9,98.1,38.5,97.9z M54.5,93.2
			c-0.4-0.1-0.7-0.1-1.4-0.2c-0.4,0.1-0.9,0.2-1.3,0.3c-0.1,0-0.1,0-0.2,0c0.6-0.1,1.1-0.3,1.5-0.4c0.7,0.1,1.1,0.1,1.5,0.2
			C54.6,93.1,54.5,93.1,54.5,93.2z M50.4,93.3c0.1-0.1,0.1-0.2,0.2-0.3c0,0.1-0.1,0.3-0.1,0.4C50.4,93.4,50.3,93.3,50.4,93.3z
			 M46.1,97.4c-0.1-1,3.1,2,3.2,1.2C49.4,99.6,46.2,96.7,46.1,97.4z M51.2,97.7c0.1,0.2,0.3,0.7,0.5,1.5
			C51.5,98.4,51.2,97.9,51.2,97.7z M51.2,97.5c0.9-0.8,1.8-1.4,2.8-2.1C53.1,96.1,52.1,96.8,51.2,97.5z M53.4,97.3
			c0.2-0.3,0.4-0.5,0.6-0.7C53.8,96.8,53.6,97,53.4,97.3z M54.2,96.2c0.1-0.1,0.2-0.2,0.3-0.3l0,0C54.4,96,54.3,96.1,54.2,96.2z
			 M53.7,94.6c-1.5,0.2-3.3-0.2-4.7,0.2c-0.3,0.1-0.9,0.9-1,1.2c-0.1-0.2,0.5-1.2,1-1.3C50.4,94.2,52.2,94.7,53.7,94.6
			c0.9-0.2,1.7-0.6,2.2-1.5C55.3,94,54.5,94.4,53.7,94.6z M56.4,92c-0.1,0.4-0.3,0.7-0.4,1C56.1,92.7,56.3,92.3,56.4,92
			c-1,0-1.9,0.2-2.9,0.3c1-0.1,2-0.2,2.9-0.4c0.2-0.1,0.4-0.2,0.6-0.3c0,0,0.1,0.1,0.1,0.2C56.9,91.9,56.6,91.9,56.4,92z M57.9,92.2
			c-0.2,0.1-0.4,0.2-0.5,0.2c0.1,0.1,0.2,0.4,0.2,0.4s-0.1-0.2-0.2-0.4C57.6,92.3,57.7,92.2,57.9,92.2c0.1,0,0.2,0.1,0.5,0.3
			C58.1,92.4,58,92.2,57.9,92.2z M61.7,96.5c-0.4-0.3-0.7-0.6-1.1-0.8c0,0-0.1,0-0.2,0h0h-0.1c-0.1,0-0.1,0-0.1,0
			c-0.1,0-0.2,0-0.3,0.1c0,0,0,0,0-0.1c0.1,0,0.2,0,0.3-0.1h0.1h0.1c0.1,0,0.1,0,0.2,0C61,95.9,61.4,96.2,61.7,96.5
			C61.8,96.5,61.7,96.5,61.7,96.5z M66.7,92.1c0,0,0-0.1,0.1-0.1c0.1,0.1,0.1,0.1,0.2,0.2l0,0C66.9,92.2,66.9,92.1,66.7,92.1
			C66.8,92.1,66.7,92.2,66.7,92.1c0,0.1-0.1,0.1-0.1,0.1C66.7,92.2,66.7,92.2,66.7,92.1z M66.5,94.2c0.5-0.9,1-1.9,1.4-2.8l0.1,0.1
			C67.5,92.3,67,93.3,66.5,94.2c0.7,0.2,1.3,0.3,1.8,0.2C67.8,94.6,67.2,94.5,66.5,94.2z M68.3,94.3c0.1,0,0.2-0.1,0.2-0.1
			C68.5,94.3,68.4,94.3,68.3,94.3z M72.9,84.8c-0.2,0-0.3-0.1-0.4-0.1C72.6,84.7,72.7,84.8,72.9,84.8z M73.3,84.9c0,0-0.1,0-0.1,0
			C73.3,84.9,73.3,84.9,73.3,84.9z M79.3,88.7C79.3,88.8,79.3,88.8,79.3,88.7C79.3,88.8,79.3,88.8,79.3,88.7z M78.1,84.3
			c-0.2,0.1-0.5,0.1-0.7,0.1C77.6,84.4,77.8,84.4,78.1,84.3c0.5-0.2,1-0.7,1.4-1.8l-0.1-0.1c0,0,0.1,0,0.1,0.1c0,0,0,0,0.1,0
			c0,0,0,0,0,0c0,0,0,0,0,0c0,0,0,0,0,0c0,0,0,0,0,0C79.2,83.6,78.6,84.1,78.1,84.3z M79.9,82.4c0,0-0.1,0-0.1,0c0,0,0,0,0,0
			c0.1,0,0.2-0.1,0.2-0.1c1.1-1.2,2.2-2.3,3.4-3.5c0,0,0,0.1,0,0.1c-1.1,1.2-2.1,2.3-3.3,3.4C80,82.4,80,82.4,79.9,82.4z"/>
		<path class="st0" d="M64.5,89.4c0-0.2,0.1-0.3,0.2-0.4c0.2,0,0.3,0,0.4,0c0.1,0,0.3,0,0.5,0c0.2,0,0.4,0.1,0.5,0.1
			c0.1,0,0.3,0,0.4,0c0.4,0,0.7-0.3,0.6-1.2C65.8,87.6,64.7,87.9,64.5,89.4z"/>
		<path class="st0" d="M76.5,57.7l-0.4,0.4C76.2,58,76.4,57.9,76.5,57.7z"/>
		<path class="st0" d="M42.1,6.2l2.6-1.3C43.8,5.3,43,5.8,42.1,6.2z"/>
		<path class="st0" d="M29.2,18.9c0,0-0.1,0-0.1-0.1C29.1,18.9,29.1,18.9,29.2,18.9z"/>
		<path class="st0" d="M74.1,41l0.4,0.8C74.4,41.5,74.3,41.3,74.1,41z"/>
		<path class="st0" d="M26.8,53.9c-0.6-2-1.3-3.9-1.9-5.9C24.2,50.4,24.1,52.6,26.8,53.9z"/>
	</g>
</g>
</svg>
