<?xml version="1.0" encoding="utf-8"?>
<!-- Generator: Adobe Illustrator 22.0.1, SVG Export Plug-In . SVG Version: 6.00 Build 0)  -->
<svg version="1.1" xmlns="http://www.w3.org/2000/svg" xmlns:xlink="http://www.w3.org/1999/xlink" x="0px" y="0px"
	 viewBox="0 0 100 100" style="enable-background:new 0 0 100 100;" xml:space="preserve">
<style type="text/css">
	.st0{fill:#BF8584;}
	.st1{fill:#337060;}
	.st2{fill:#C7E5DD;}
	.st3{fill:#A68180;}
	.st4{fill:#355E4A;}
	.st5{fill:#6E6661;}
	.st6{fill:#46322E;}
	.st7{fill:#AD6A66;}
	.st8{fill:#754743;}
	.st9{fill:#BB7170;}
	.st10{fill:none;}
	.st11{fill:#985B5B;}
	.st12{fill:#0E0F0E;}
	.st13{fill:#B8B5B4;}
	.st14{fill:#AFA5A4;}
	.st15{fill:#CAC8C8;}
</style>
<g id="Layer_2">
	<circle class="st0" cx="50" cy="50" r="50"/>
</g>
<g id="Layer_1">
	<g>
		<path class="st1" d="M53.2,36.8c-0.2-0.2-0.6-0.5-0.8-0.7C52.6,36.3,53,36.6,53.2,36.8c0.9,2,2.3,2.2,3.9,2.2
			C55.5,39,54.1,38.8,53.2,36.8z"/>
		<path class="st1" d="M44,58c0.4,0,0.8,0,1.1,0C44.8,58,44.4,58,44,58z"/>
		<path class="st1" d="M46.6,51.7L46.6,51.7L46.6,51.7C46.6,51.6,46.6,51.7,46.6,51.7z"/>
		<path class="st1" d="M41.1,55.1c0.3,0,0.5,0,0.8,0C41.7,55.1,41.4,55.1,41.1,55.1L41.1,55.1z"/>
		<path class="st1" d="M80,48.4L80,48.4c0.1-1.3,0.6-2.7,0.1-3.7C80.6,45.8,80.1,47.2,80,48.4z"/>
		<path class="st1" d="M63.7,54.2c0,0.3,0,0.6,0,0.9C63.7,54.8,63.7,54.5,63.7,54.2c0.3-2.3-0.9-3.9-2.2-5.4
			C62.9,50.3,64,51.9,63.7,54.2z"/>
		<path class="st1" d="M58.1,38.9c-0.3,0-0.7,0-1,0C57.4,39,57.8,39,58.1,38.9z"/>
		<path class="st1" d="M59.5,33.5c-0.8,0.4-1.6,0.9-2.4,1.3C57.8,34.4,58.7,34,59.5,33.5L59.5,33.5z"/>
		<path class="st1" d="M63.9,35.6c0.6,0.3,1.2,0.6,1.8,0.9C65.1,36.1,64.5,35.9,63.9,35.6c-0.1,0.2-0.1,0.4-0.2,0.6
			C63.8,36,63.8,35.8,63.9,35.6z"/>
		<path class="st1" d="M55,65.1c-0.3,0.2-0.6,0.4-0.9,0.5C54.4,65.5,54.7,65.4,55,65.1z"/>
		<path class="st1" d="M63,34.7c-0.5-0.2-1.1-0.4-1.6-0.7l0,0l0,0C61.9,34.2,62.5,34.5,63,34.7z"/>
		<path class="st1" d="M46.4,14c-0.2-0.2-0.4-0.5-0.6-0.9l0,0C46,13.5,46.2,13.8,46.4,14z"/>
		<path class="st1" d="M38.1,14.7L38.1,14.7c1-0.1,2.1-0.3,3.1-0.4l0,0C40.2,14.4,39.1,14.6,38.1,14.7z"/>
		<path class="st1" d="M43.6,14.5c-0.1,0-0.3,0-0.4,0C43.4,14.4,43.5,14.5,43.6,14.5z"/>
		<path class="st1" d="M63,36c0.2,0.1,0.5,0.1,0.7,0.2c0,0.4,0,0.9,0,1.3c0-0.4,0-0.9,0-1.3C63.4,36.1,63.2,36.1,63,36z"/>
		<path class="st1" d="M40,44.9L40,44.9c-1.3,1.9-2.6,3.9-3.8,5.8v0.1v-0.1C37.4,48.8,38.7,46.8,40,44.9z"/>
		<path class="st1" d="M47,34.8L47,34.8L47,34.8z"/>
		<path class="st1" d="M47,34.8c1-2.5,0.4-3-0.5-2.9C47.5,31.8,48,32.3,47,34.8c1.3,0.5,2.6,0.9,3.9,1.4
			C49.6,35.7,48.3,35.3,47,34.8z"/>
		<path class="st1" d="M37.8,39.6c-0.4,0-0.7,0-0.9-0.1C37.1,39.6,37.5,39.6,37.8,39.6z"/>
		<path class="st1" d="M72,53.5c-0.2-1.1-0.6-2.1-0.6-3.2c-0.1-0.9-0.3-1.8-0.4-2.7c0.1,0.9,0.3,1.8,0.4,2.7
			C71.4,51.4,71.8,52.4,72,53.5z"/>
		<path class="st1" d="M61.8,56.3c0.1,0.3,0.2,0.7,0.3,1c-0.2,1.3-0.4,2.6-0.6,4c0.2-1.3,0.4-2.6,0.6-4C62,57,62,56.6,61.8,56.3z"/>
		<path class="st1" d="M63.2,58.5L63.2,58.5c1.1,1.9,2.1,2.5,3.1,2.5C65.3,61,64.3,60.4,63.2,58.5z"/>
		<path class="st1" d="M44,10.3c-1.7,0.2-3.4,0.5-4.9,0.9C40.6,10.8,42.3,10.5,44,10.3z"/>
		<path class="st1" d="M42.2,88.8c1.9,1,4,1.6,6.3,1.9c0.7,0.3,1.3,0.5,2,0.8c-0.7-0.3-1.3-0.5-2-0.8C46.3,90.4,44.1,89.8,42.2,88.8
			z"/>
		<path class="st1" d="M71,40.4c0.3-2.1,0.3-4.1-3.4-4.8c-1.4-1.7-2.9-3.3-4.3-5c1.4,1.7,2.9,3.3,4.3,5C71.3,36.3,71.3,38.3,71,40.4
			z"/>
		<path class="st1" d="M46.4,58.3c0.2,0.1,0.4,0.2,0.5,0.2c-1.1,0.7-2.2,1.1-3.3,1.2c1.1-0.1,2.2-0.5,3.3-1.2
			C46.8,58.4,46.6,58.3,46.4,58.3z"/>
		<path class="st1" d="M42.4,67.6c-0.4-0.3-0.8-0.7-1.2-1C41.6,67,42,67.3,42.4,67.6z"/>
		<path class="st1" d="M58.3,32.8c0.2,0,0.4,0,0.5,0.1C58.6,32.9,58.5,32.9,58.3,32.8c0-0.6,0-1.2,0-1.8c1.7-0.1,3.4-0.3,5-0.4
			c-1.7,0.1-3.4,0.3-5,0.4C58.3,31.6,58.3,32.2,58.3,32.8z"/>
		<path class="st1" d="M38.4,60.4c0-0.6-0.1-1.3-0.1-1.9C38.3,59.1,38.4,59.8,38.4,60.4c-0.6,2.4,0.3,3.9,1.6,5.2
			C38.8,64.3,37.8,62.8,38.4,60.4z"/>
		<path class="st1" d="M76.1,46.9c0.1,1.7,0.3,3.4,0.4,5.1C76.3,50.2,76.2,48.6,76.1,46.9L76.1,46.9z"/>
		<path class="st1" d="M77.1,42.4L77.1,42.4c0.3,0.3,0.6,0.6,0.9,0.9C77.7,43,77.4,42.7,77.1,42.4z"/>
		<path class="st1" d="M43.7,59.7c-0.4,0-0.7,0.1-1.1,0.1C43,59.8,43.4,59.8,43.7,59.7z"/>
		<path class="st1" d="M45.7,32c-0.4,0.1-0.8,0.2-1.2,0.2C44.9,32.2,45.3,32.1,45.7,32z"/>
		<path class="st1" d="M72.8,22.4c-1.2-3.4-3.1-6.4-7.2-8l0,0C69.7,16,71.6,19,72.8,22.4z"/>
		<path class="st1" d="M72.8,22.4c0.3,0.8,0.5,1.5,0.7,2.3C73.3,23.9,73.1,23.1,72.8,22.4z"/>
		<path class="st1" d="M46.3,68.4c-0.1,0.2-0.1,0.6-0.1,1l0,0C46.2,68.9,46.2,68.6,46.3,68.4z"/>
		<path class="st1" d="M64.1,14.1c-3.8-3.3-12.7-4.7-20.1-3.9C51.4,9.5,60.3,10.8,64.1,14.1c0.5,0.1,1,0.1,1.5,0.2
			C65.1,14.3,64.6,14.2,64.1,14.1z"/>
		<path class="st1" d="M35.7,61.9c-1.2-0.2-2.3,1.1-3.4,1.3C33.5,63,34.5,61.8,35.7,61.9c0.2-0.1,0.3-0.3,0.5-0.4
			C36,61.7,35.9,61.8,35.7,61.9z"/>
		<path class="st1" d="M54.6,50.7c-0.1-0.4-0.6-0.8-0.6-1.2l0,0C54.1,49.9,54.5,50.3,54.6,50.7z"/>
		<path class="st1" d="M47.8,46.5c-0.5-0.1-1-0.3-1.5-0.6C46.8,46.2,47.3,46.4,47.8,46.5z"/>
		<path class="st1" d="M51.4,52c0.3-0.2,0.8-0.6,1.1-0.9c0.4,0.1,0.8,0.3,1.1,0.4c-0.4-0.1-0.8-0.3-1.1-0.4
			C52.1,51.4,51.7,51.8,51.4,52z"/>
		<path class="st1" d="M59.5,62.7c0,0.3-0.1,0.6-0.2,0.9C59.4,63.3,59.5,63,59.5,62.7z"/>
		<path class="st1" d="M51,46.4c-0.4,0.1-0.8,0.1-1.3,0.2C50.2,46.5,50.6,46.5,51,46.4z"/>
		<path class="st1" d="M48.6,46.6c0.4,0,0.8,0,1.2,0C49.4,46.6,49,46.6,48.6,46.6z"/>
		<path class="st1" d="M63.5,39.8c-0.3,0.3-0.6,0.5-1,0.6C62.9,40.3,63.2,40.1,63.5,39.8z"/>
		<path class="st1" d="M50.5,42.9c0.9,0.4,1.8,0.9,2.7,1.3l0,0C52.3,43.7,51.4,43.3,50.5,42.9z"/>
		<path class="st1" d="M63.2,57.7c0,0.3,0,0.5,0,0.8C63.2,58.2,63.2,58,63.2,57.7c-0.1-0.1-0.2-0.1-0.3-0.2
			C63,57.6,63.1,57.7,63.2,57.7z"/>
		<path class="st1" d="M55.7,43.9c-0.3,0.5-0.6,0.9-0.9,1.4l0,0C55.1,44.9,55.4,44.4,55.7,43.9z"/>
		<path class="st1" d="M54.7,50.9L54.7,50.9L54.7,50.9z"/>
		<path class="st1" d="M46,41.3c-0.4,0.9-0.8,1.9-0.9,2.8l0,0C45.2,43.2,45.6,42.2,46,41.3z"/>
		<path class="st1" d="M47.4,37.4c0-0.2,0-0.5,0-0.7C47.4,37,47.4,37.2,47.4,37.4z"/>
		<path class="st1" d="M63.3,56.5c0.1-0.4,0.3-0.8,0.4-1.2l0,0C63.6,55.8,63.4,56.2,63.3,56.5c-0.1,0-0.3,0-0.4,0l0,0
			C63,56.5,63.2,56.5,63.3,56.5z"/>
		<path class="st1" d="M50.6,54.6c0.1,0.1,0.2,0.2,0.3,0.4C50.7,54.9,50.6,54.8,50.6,54.6L50.6,54.6z"/>
		<path class="st1" d="M58.7,56.2L58.7,56.2c-0.1,0.1-0.3,0.2-0.4,0.3C58.4,56.4,58.5,56.3,58.7,56.2z"/>
		<path class="st1" d="M59.3,63.7c0,0.2-0.1,0.4-0.1,0.6C59.3,64.1,59.3,63.9,59.3,63.7z"/>
		<path class="st1" d="M59.5,62.7c0-0.3,0-0.6-0.1-0.8l0,0C59.5,62.2,59.5,62.5,59.5,62.7z"/>
		<path class="st1" d="M60.2,54.5L60.2,54.5c-0.3,0-0.5,0-0.8,0c-1.9-1-3.9-1.9-5.8-2.9c1.9,1,3.9,1.9,5.8,2.9
			C59.7,54.5,59.9,54.5,60.2,54.5z"/>
		<path class="st1" d="M36.9,29.8c0.5-0.1,1-0.2,1.5-0.3c-0.1,0.6-0.2,1.3-0.3,1.9c0.1-0.6,0.2-1.3,0.3-1.9c0.7,0,1.3,0,2-0.1
			c0,0.1,0,0.2,0.1,0.3l0,0c0-0.1,0-0.2-0.1-0.3c-0.7,0-1.3,0-2,0.1C37.9,29.6,37.4,29.7,36.9,29.8z"/>
		<path class="st1" d="M46,41.3c0.2-0.4,0.3-0.7,0.5-1.1C46.4,40.6,46.2,40.9,46,41.3z"/>
		<path class="st1" d="M43,65.9c0.9-1,1.7-2,2.6-3.1c1.1,0,2.3-0.1,3.4-0.1c-1.1,0-2.3,0.1-3.4,0.1C44.7,63.9,43.8,64.9,43,65.9z"/>
		<path class="st1" d="M64.4,38.4c-0.2,0.6-0.5,1.1-0.9,1.4C63.9,39.5,64.2,39,64.4,38.4z"/>
		<path class="st1" d="M58.3,56.5c-0.4,0.4-0.8,0.8-1.2,1.2C57.5,57.3,57.9,56.9,58.3,56.5L58.3,56.5z"/>
		<path class="st1" d="M55,65.1c0.7-0.6,1.2-1.5,1.8-2.4c0.4-0.1,0.8-0.2,1.2-0.3c-0.4,0.1-0.8,0.2-1.2,0.3
			C56.2,63.7,55.7,64.6,55,65.1z"/>
		<path class="st1" d="M73.3,38.7c0.3,0.8,0.6,1.5,0.8,2.3C73.9,40.3,73.6,39.5,73.3,38.7c-1.2-3-2.5-6-3.7-9
			C70.8,32.7,72.1,35.7,73.3,38.7z"/>
		<path class="st1" d="M46.8,39.6c0.2-0.4,0.3-0.8,0.4-1.1C47,38.9,46.9,39.3,46.8,39.6z"/>
		<path class="st1" d="M44.2,14.4c0.4-0.1,0.7-0.5,0.9-1.3c0.1,0,0.2,0,0.4,0c-0.1,0-0.2,0-0.4,0C45,13.9,44.6,14.3,44.2,14.4z"/>
		<path class="st1" d="M53.6,60c-0.3,0.4-0.5,0.8-0.8,1.1c-0.9,0.4-1.8,0.9-2.6,1.3c0.9-0.4,1.8-0.9,2.6-1.3
			C53.1,60.8,53.3,60.4,53.6,60z"/>
		<path class="st1" d="M48.9,62.8c0.1,0,0.3,0,0.4,0c0.3-0.1,0.5-0.2,0.8-0.3c-0.3,0.1-0.5,0.2-0.8,0.3
			C49.2,62.8,49.1,62.8,48.9,62.8z"/>
		<path class="st1" d="M67.6,35.6c-0.7,0.3-1.3,0.6-2,0.8l0,0C66.3,36.2,66.9,35.9,67.6,35.6z"/>
		<path class="st1" d="M52.5,49.5c-1.4,0.2-2.9,0.3-4.3,0.5c-0.6-0.3-1.3-0.5-1.9-0.8c0.6,0.3,1.3,0.5,1.9,0.8
			C49.6,49.8,51,49.6,52.5,49.5z"/>
		<path class="st1" d="M41.2,53c1.6-0.8,3.2-1.8,4.7-2.7l0,0C44.4,51.2,42.9,52.2,41.2,53z"/>
		<path class="st1" d="M69.9,25.1c0-0.3,0-0.5,0-0.8c-0.9-2.5-1.8-4.9-2.6-7.4c0.9,2.5,1.8,4.9,2.6,7.4
			C69.9,24.6,69.9,24.9,69.9,25.1z"/>
		<path class="st1" d="M60.6,28.3L60.6,28.3c0.1-0.4,0.1-0.8,0.1-1.1C60.7,27.5,60.6,27.8,60.6,28.3L60.6,28.3L60.6,28.3z"/>
		<path class="st1" d="M49.3,56.4c0.5,0.5,2.1,0.4,2.4,1l0,0C51.4,56.8,49.8,57,49.3,56.4z"/>
		<path class="st1" d="M50.1,54.6c-1,0-2.1,0-3.1,0C48,54.6,49.1,54.6,50.1,54.6L50.1,54.6C50.2,54.6,50.2,54.6,50.1,54.6z"/>
		<path class="st1" d="M77.1,42.4c-0.2,0-0.4,0-0.6,0c-0.7-0.2-1.3-0.4-2-0.6c0.7,0.2,1.3,0.4,2,0.6C76.7,42.4,76.9,42.4,77.1,42.4z
			"/>
		<path class="st1" d="M46.4,52.7c-0.4,0.8-0.6,1.5,0.6,1.8c-0.4,0.4-0.7,0.8-1.1,1.2c0.4-0.4,0.7-0.8,1.1-1.2
			C45.8,54.2,46,53.5,46.4,52.7z"/>
		<path class="st1" d="M74.5,41.8c-0.1-0.3-0.2-0.5-0.4-0.8C74.3,41.3,74.4,41.6,74.5,41.8L74.5,41.8z"/>
		<path class="st1" d="M36.2,50.7c2.7-1.4,5.4-2.8,8.1-4.3l0,0C41.6,47.9,38.9,49.3,36.2,50.7z"/>
		<path class="st1" d="M37.7,36.9c-0.1,0.1-0.3,0.2-0.4,0.2C37.4,37.1,37.6,37,37.7,36.9c0.3,0,0.5,0,0.8,0l0,0
			C38.2,36.9,38,36.9,37.7,36.9z"/>
		<path class="st1" d="M41.2,43c-0.6-0.1-1.2-0.2-1.7-0.4C40.1,42.7,40.6,42.9,41.2,43L41.2,43z"/>
		<path class="st1" d="M35.4,58.8c0.1,0.4,0.2,0.8,0.3,1.2c0.1,0.3,0.3,0.7,0.4,1c-0.1-0.3-0.3-0.7-0.4-1
			C35.6,59.6,35.5,59.2,35.4,58.8z"/>
		<path class="st1" d="M36.2,61.3c0,0.1,0,0.2,0,0.2c0,0.4,0,0.8,0,1.2c0-0.4,0-0.8,0-1.2C36.2,61.5,36.2,61.4,36.2,61.3z"/>
		<path class="st1" d="M31.9,39.6c0.3-0.5,0.6-1,0.9-1.5c0.4-0.1,0.9-0.1,1.3-0.2c-0.4,0.1-0.9,0.1-1.3,0.2
			C32.5,38.6,32.2,39.1,31.9,39.6z"/>
		<path class="st1" d="M36.7,39.2c0,0.1,0.1,0.2,0.3,0.3C36.8,39.4,36.7,39.3,36.7,39.2z"/>
		<path class="st1" d="M43.9,33.7L43.9,33.7c-0.8,0.4-1.6,0.8-2.4,1.2l0,0C42.4,34.5,43.1,34.1,43.9,33.7z"/>
		<path class="st1" d="M36.2,34.6c-0.2,0.1-0.3,0.2-0.5,0.2l0,0l0,0C35.9,34.7,36.1,34.6,36.2,34.6z"/>
		<path class="st1" d="M43.5,32.1L43.4,32C43.4,32,43.5,32.1,43.5,32.1c0.2,0.1,0.4,0.1,0.6,0.1C43.9,32.2,43.7,32.2,43.5,32.1z"/>
		<path class="st1" d="M35.7,34.8c-0.1,0.1-0.3,0.2-0.4,0.3c-0.8,0.7-1.6,1.5-2.4,2.2c0.8-0.7,1.6-1.5,2.4-2.2
			C35.4,35,35.6,34.9,35.7,34.8z"/>
		<path class="st1" d="M53.6,75.2c-0.8,0.3-1.6,0.7-2.4,1C52,75.9,52.8,75.6,53.6,75.2c1.3-0.8,2.6-1.6,3.9-2.4
			c0.5-0.3,1-0.7,1.4-1.1c-0.4,0.4-0.8,0.7-1.4,1.1C56.2,73.6,54.9,74.4,53.6,75.2z"/>
		<path class="st1" d="M32.2,37.9L32.2,37.9c0.2,0.1,0.4,0.1,0.6,0.2C32.6,38,32.4,38,32.2,37.9z"/>
		<path class="st1" d="M50.4,76.6c-0.4,0-0.7,0-1.1,0c-0.3,0-0.5,0-0.8,0c0.3,0,0.5,0,0.8,0C49.7,76.7,50.1,76.6,50.4,76.6
			L50.4,76.6z"/>
		<path class="st1" d="M70.8,59c-0.1,0.3-0.2,0.6-0.2,0.9C70.6,59.6,70.7,59.3,70.8,59z"/>
		<path class="st1" d="M70.8,59c0.1-0.3,0.2-0.6,0.2-0.9l0,0C71,58.4,70.9,58.7,70.8,59z"/>
		<path class="st1" d="M66.8,92c-0.1,0.1-0.1,0.2-0.2,0.2C66.7,92.2,66.7,92.1,66.8,92L66.8,92z"/>
		<path class="st1" d="M60,70c-0.3,0.6-0.7,1.2-1.2,1.7C59.4,71.3,59.7,70.7,60,70z"/>
		<path class="st2" d="M35,71.1c-0.4-0.7-0.8-1.4-1.2-2.1c-1.1-2.1-2.1-4.1-3.2-6.2c-0.2-0.1-0.4-0.3-0.6-0.4
			c-0.9-2.6-1.8-5.2-2.7-7.7c-0.1-0.3-0.3-0.5-0.4-0.8c-2.7-1.3-2.6-3.5-1.9-5.9c0.1-0.3,0.2-0.6,0.3-0.8c1,0.4,1.8,0.9,2.3,1.5
			c-0.5-0.6-1.3-1.1-2.3-1.5c0-0.4,0-0.7,0-1.1c0-1.8,3.5-0.1,2.7-2.7c0-1.2,0-2.3,0.1-3.5c-1.4-6-0.1-11.9,0.8-17.8
			c0-0.4,0.1-0.7,0.1-1.1v-0.1c0.2-0.7,0.4-1.3,0.6-2c0.1-0.1,0.3-0.2,0.4-0.4c0-0.1-0.1-0.3-0.1-0.4c0.3-0.7,0.5-1.3,0.8-2
			c0.9-1.3,1.9-2.5,2.8-3.8l0,0c2.9-2.1,5.7-4.2,8.6-6.3c0.9-0.4,1.7-0.9,2.6-1.3c0.2,0,0.5,0,0.7-0.1c0.9-0.2,1.8-0.3,2.7-0.5
			c1.3,0,2.7,0.1,4,0.1c4.4,1.5,8.8,3,13.2,4.5c8.3,6,12.2,14.4,12.9,24.4c0.1,1.2,0.2,2.3,0.3,3.5c0,1.2,0,2.3,0,3.5
			c0,0.2,0.1,0.5,0.1,0.7c0.7,0.3,1.5,0.7,2.2,1c0.1,0.3,0.3,0.7,0.4,1c0.5,0.8,1,1.6,1.5,2.4c-0.3,1.9,1,4.1-1.5,5.4
			c-1.6,2.3-3.2,4.6-4.7,6.9c-0.1,0.1-0.3,0.2-0.4,0.4c-0.3,0-0.5,0-0.8,0l0,0c-0.3,0-0.6,0-0.9,0c-0.4,1.6-0.7,3.1-1.1,4.7
			c0,0.3,0,0.5-0.1,0.8c0,0.3,0,0.5,0,0.8c0.1,1.9,0.3,3.9,0.4,5.8c0.1,0.9,0.3,1.8,0.4,2.7c0.8,0.8,2.4,2,2.2,2.4
			c-0.7,1.5-0.4,5.3-1.4,6.7c-0.5,0.9-1.1,0.8-2.4,1.7c-2.9,3.1-6,5.4-10.3,6.7c-1.3,0.7,0.4,3.1-3.8,1.4c3.7,0.5,3.8-1.4,6.2-2.2
			 M67,87.9c1.6-1.2,2.6-1.6,4.2-2.8c0.2-0.3,1.4-0.7,1.7-1c1.6-1,3.4,0.7,5.1,0.1c-1.7,0.6-3.2-1.2-4.8-0.2
			c3.8-1.7,1.4-10.4,8.4-8.2c3.1,0.9,6.2,1.9,9.3,3c5.8-8.1,9.2-18.1,9.2-28.8c0-27.6-22.4-50-50-50S0,22.4,0,50
			c0,15.6,7.2,29.6,18.4,38.8c3.2-1.4,6.3-2.9,9.4-4.4c0.6-0.3,0.7-1.5,1-2.2c0.6-0.2,1.2-0.5,1.8-0.7c2.3-0.4,4.1-1.7,4.3-4
			 M29.2,18.9c0,0-0.1,0-0.1-0.1C29.1,18.9,29.2,18.9,29.2,18.9L29.2,18.9z"/>
		<path class="st1" d="M72.1,53.9c0,0.1,0,0.3,0,0.4C72.1,54.1,72.1,54,72.1,53.9z"/>
		<path class="st1" d="M42.2,88.8c-0.9-0.5-1.8-1.1-2.7-1.8C40.4,87.7,41.3,88.3,42.2,88.8z"/>
		<path class="st1" d="M50,100c0.5,0,1,0,1.5,0c-1,0-2,0-3,0C49,100,49.5,100,50,100z"/>
		<path class="st1" d="M66.5,89.1L66.5,89.1L66.5,89.1z"/>
		<path class="st1" d="M66.1,89.1c-0.2,0-0.4-0.1-0.5-0.1C65.8,89,65.9,89.1,66.1,89.1z"/>
		<path class="st1" d="M27.8,48.9c0.3,0.4,0.5,0.8,0.6,1.3C28.3,49.7,28,49.3,27.8,48.9z"/>
		<path class="st1" d="M56.7,90.6L56.7,90.6c-2.1,0-4.1,0-6.2,0l0,0C52.6,90.6,54.7,90.6,56.7,90.6z"/>
		<path class="st1" d="M53.3,12.9c-0.2,0-0.3,0.1-0.5,0.2C53,13,53.2,12.9,53.3,12.9z"/>
		<path class="st1" d="M37.7,77.4c-0.5-1.3-1.1-2.6-1.6-3.9C36.7,74.8,37.2,76.1,37.7,77.4L37.7,77.4z"/>
		<path class="st1" d="M36.2,83.6c0.3,0.3,0.6,0.7,1.1,0.9c0.3,0.5,0.7,1,1.1,1.4c-0.4-0.4-0.7-0.9-1.1-1.4
			C36.8,84.2,36.5,83.9,36.2,83.6z"/>
		<path class="st1" d="M37.7,31.3c0.1,0,0.3,0,0.4,0c0.6-0.4,1.3-0.9,1.9-1.3c-0.6,0.4-1.3,0.9-1.9,1.3C38,31.4,37.8,31.4,37.7,31.3
			z"/>
		<path class="st1" d="M30.9,25c0.1,2.1,0.4,4.2,0.5,6.3c0,0.2,0,0.3,0,0.5c0-0.2,0-0.3,0-0.5C31.3,29.2,31.1,27.1,30.9,25z"/>
		<path class="st1" d="M36.1,30.1c-0.3,0.6-0.5,1.1-0.8,1.7C35.6,31.2,35.9,30.6,36.1,30.1L36.1,30.1z"/>
		<path class="st1" d="M63.3,29.1c1.5-0.2,3-0.5,4.5-0.7C66.3,28.6,64.8,28.8,63.3,29.1L63.3,29.1z"/>
		<path class="st1" d="M36.9,29.8L36.9,29.8c0.3,0.5,0.5,1,0.8,1.6C37.5,30.8,37.2,30.3,36.9,29.8L36.9,29.8z"/>
		<path class="st1" d="M36.6,82.9c0.1,0.4,0.2,0.7,0.4,1.1C36.8,83.7,36.7,83.3,36.6,82.9c-0.1-0.9-0.3-1.8-0.4-2.7
			c0.5-0.9,1-1.8,1.5-2.8c-0.5,0.9-1,1.8-1.5,2.8C36.3,81.1,36.5,82,36.6,82.9z"/>
		<path class="st1" d="M29.2,33.3c0,0.3,0,0.5-0.1,0.8c-0.1,0.2-0.1,0.3-0.2,0.5c0.1-0.2,0.1-0.3,0.2-0.5
			C29.1,33.8,29.2,33.5,29.2,33.3z"/>
		<path class="st1" d="M31.1,18.6c-0.1-0.1-0.2-0.3-0.4-0.4l0,0C30.8,18.3,30.9,18.5,31.1,18.6c-0.1,0.1-0.2,0.2-0.3,0.3
			c-0.5,1.8-1,3.6-1.5,5.5c0.5-1.8,1-3.6,1.5-5.5C30.8,18.8,31,18.7,31.1,18.6z"/>
		<path class="st1" d="M56.7,90.6L56.7,90.6L56.7,90.6z"/>
		<path class="st1" d="M22.8,91.9c2.7,1.8,5.6,3.3,8.6,4.5c-0.2-0.2-0.4-0.5-0.6-0.8C28.8,92.3,25.8,91.9,22.8,91.9z"/>
		<path class="st1" d="M72.5,83.6c1.6-1,3.8,1.3,5.5,0.7c0.6-0.2,1.1-0.7,1.5-1.8l-0.1-0.1c0,0,0.1,0,0.1,0.1l0,0
			c0.1,0,0.2,0,0.3-0.1c0.1,0,0.2-0.1,0.2-0.1c1.1-1.2,2.2-2.3,3.4-3.5c-0.9,3.5-1.8,7-2.7,10.6c3.8-3,7.2-6.6,10.1-10.6
			c-3.1-1-6.2-2-9.3-3C74.6,73.7,76.3,81.9,72.5,83.6z"/>
		<path class="st1" d="M79.1,89.9c1.3-6.8-4.7-3.9-7.2-5.5c-1.6,1.2-3.1,2.4-4.7,3.6l0,0l0,0c0.1,0.9-0.2,1.2-0.6,1.2l0,0
			c-0.1,0-0.3,0-0.4,0c-0.2,0-0.4-0.1-0.5-0.1c-0.2,0-0.3,0-0.5,0c-0.1,0-0.3,0-0.4,0.1s-0.2,0.2-0.2,0.4c-2.6-1.3-4.3,3.7-7.1,1.1
			l0,0c-0.2,0-0.5,0-0.7,0c-2.1,0.3-4.1,0.6-6.2,0.9c0,0.4,0,0.7,0,1.1l0,0c1.9-0.3,3.9-0.5,5.8-0.8c0.2-0.1,0.4-0.2,0.6-0.3
			c0,0,0.1,0.1,0.1,0.2c-0.2,0.1-0.5,0.1-0.7,0.2l0,0c-0.6,1.8-1.6,2.4-2.7,2.6c-1.5,0.2-3.3-0.2-4.7,0.2c-0.4,0.1-1.1,1.1-1,1.3
			c4,6.2-2.6-0.5-1.9,1.6c-3.5,0.9-5.8-1.5-8.5-3c-1.1-0.6-1.6-1.3-2.4,0.7c-0.3,0.9-0.9,1.7-1.5,2c4.7,1.6,9.6,2.5,14.8,2.7
			c1,0,2,0,3,0c10.5-0.3,20.3-3.9,28.2-9.7C79.3,90.1,79.1,90,79.1,89.9z M39.6,98.3c-0.4-0.1-0.7-0.2-1.1-0.4
			c0.3-0.2,0.7-0.5,1-0.5s0.5,0.4,1.1,0.9C40.1,98.3,39.8,98.3,39.6,98.3z M51.7,99.2c-0.3-1-0.6-1.6-0.5-1.7
			c0.9-0.8,1.8-1.4,2.8-2.1l0.5,0.5C53.8,96.8,53.1,97.6,51.7,99.2z M57.6,92.8c0,0-0.1-0.2-0.2-0.4c0.2-0.1,0.3-0.2,0.5-0.2
			c0.1,0,0.2,0.1,0.5,0.3C58,92.7,57.8,92.8,57.6,92.8z M60.4,97.1c0.1-0.5,0.1-0.9,0.2-1.4c0,0-0.1,0-0.2,0h-0.1
			c-0.1,0-0.1,0-0.1,0l0,0c-0.1,0.1-0.2,0.1-0.2,0.2c0-0.1-0.1-0.1-0.1-0.2c0.1,0,0.2,0,0.3-0.1h0.1h0.1l0,0c0.1,0,0.1,0,0.2,0
			c0.4,0.3,0.8,0.6,1.2,0.9C61.3,96.7,60.9,96.9,60.4,97.1z M66.8,92L66.8,92L66.8,92c0.1,0.1,0.1,0.1,0.2,0.2l-0.1,0.1
			c-0.1,0-0.2-0.1-0.3-0.1C66.7,92.2,66.7,92.1,66.8,92z M66.5,94.2c0.5-0.9,1-1.9,1.4-2.8l-0.1-0.1l0.1,0.1l0.1,0.1l0,0
			c0.2,0.3,0.5,0.5,0.7,0.8s0.4,0.5,0.4,0.8C68.9,94.6,67.8,94.7,66.5,94.2z"/>
		<path class="st3" d="M50.4,76.6L50.4,76.6L50.4,76.6z"/>
		<path class="st3" d="M70.6,59.9c0.1-0.3,0.1-0.6,0.2-0.9c0.1-0.3,0.2-0.6,0.2-0.9c-1.6,1-3.1,2.9-4.8,2.9c-1,0-2-0.6-3.1-2.5
			c-0.6,0.9-1.2,1.8-1.7,2.8c-0.1,1.4-0.2,2.8-0.2,4.2C60.9,67,60.7,68.6,60,70c-0.3,0.6-0.7,1.2-1.2,1.7c-0.4,0.4-0.8,0.7-1.4,1.1
			c-1.3,0.8-2.6,1.6-3.9,2.4c-0.8,0.3-1.6,0.7-2.4,1c-0.3,0.1-0.5,0.3-0.8,0.4c-0.1,0.3-0.2,0.6-0.3,0.8c1.4,3,2.9,6.1,4.2,9.2
			c0.1,0.1-0.5,0.8-0.8,0.8c-2,0.2-9.4-4.8-3,3.2l0,0c2.1,0,4.1,0,6.2,0l0,0c0.2,0,0.5,0,0.7,0l0,0c1.3-0.7,2.6-1.5,3.8-2.2
			c1.5-1.8-3.3,0.6-1.2-2c2.6-3.3,7.7-1,10-4.9c0.1-0.1,1.2,0.4,1.8,0.6c0.5-0.9,1-1.8,1.6-2.7c0.2-2.2,0.5-4.4,0.7-6.6
			c-0.1-0.9-0.3-1.8-0.4-2.7c-0.4-0.3-0.8-0.6-1.2-0.8c-0.2,1.2-0.4,2.4-0.7,3.5c-0.1,0.5-0.3,1.1-0.4,1.6c-0.3-0.1-0.7-0.1-0.8-0.3
			c-0.3-0.5-0.7-1.2-0.6-1.6c1-2.8,2.1-5.5,3.2-8.3c0-0.3,0-0.5,0-0.8C70.3,63.2,70.2,61.6,70.6,59.9z"/>
		<path class="st4" d="M35.1,77.4c-0.2,2.3-2,3.6-4.3,4c-0.6,0.2-1.2,0.5-1.8,0.7c-0.3,0.8-0.5,1.9-1,2.2c-3.1,1.6-6.3,3-9.4,4.4
			c1.4,1.1,2.8,2.2,4.4,3.2c3,0,6,0.3,8,3.6c0.2,0.3,0.4,0.6,0.6,0.8c0.8,0.3,1.5,0.6,2.3,0.9c0.4-0.2,1-1,1.3-1.9
			c0.7-2,1.3-1.3,2.4-0.7c2.7,1.5,5,4,8.5,3c-0.7-2.1,5.9,4.6,1.9-1.6c-0.1-0.2,0.5-1.2,1-1.3c1.4-0.5,3.2,0,4.7-0.2
			c1.2-0.2,2.2-0.8,2.7-2.6l0,0l0,0l0,0c-1.9,0.3-3.9,0.5-5.8,0.8c0,0.2-0.1,0.5-0.1,0.7c-0.1,0-0.2-0.1-0.1-0.1
			c0.1-0.2,0.2-0.4,0.3-0.6c0-0.4,0-0.7,0-1.1c-0.7-0.3-1.3-0.5-2-0.8c-2.3-0.3-4.4-0.9-6.3-1.9c-0.9-0.5-1.8-1.1-2.7-1.8
			c-0.4-0.4-0.8-0.7-1.2-1.2c-0.4-0.4-0.7-0.9-1.1-1.4c-0.5-0.3-0.9-0.6-1.1-0.9c-0.8-1-0.6-2.4-0.5-3.8c0.3-0.7,0.7-1.4,1-2.1
			c-1.7-1.2-0.9-2.7-0.5-4.2 M53.1,92.9c0.7,0.1,1.1,0.1,1.5,0.2c-0.4,0.2-0.8,0.5-1.2,0.5c-0.6,0-1.2-0.2-1.8-0.3
			C52.2,93.2,52.7,93,53.1,92.9z"/>
		<path class="st4" d="M80.1,82.3c-0.1,0.1-0.1,0.1-0.2,0.1s-0.2,0-0.3,0.1l0,0l0,0l0,0c-0.4,1.1-1,1.6-1.5,1.8
			c-1.7,0.6-3.9-1.7-5.5-0.7c-0.2,0.3-0.4,0.5-0.7,0.8c2.5,1.6,8.5-1.2,7.2,5.5c0,0.1,0.3,0.2,0.6,0.3c0.4-0.3,0.7-0.6,1.1-0.8
			c0.9-3.5,1.8-7,2.7-10.6C82.4,80,81.3,81.2,80.1,82.3z"/>
		<path class="st5" d="M50.5,90.7L50.5,90.7L50.5,90.7L50.5,90.7c-0.1,0-0.3,0-0.4,0c-0.5,0-1.1,0-1.6,0.1c0.7,0.3,1.3,0.5,2,0.8
			c2.1-0.3,4.1-0.6,6.2-0.9l0,0C54.7,90.6,52.6,90.6,50.5,90.7z"/>
		<path class="st4" d="M54,95.4c-0.9,0.7-1.9,1.4-2.8,2.1c-0.1,0.1,0.2,0.6,0.5,1.7c1.4-1.6,2.1-2.4,2.8-3.3
			C54.5,95.9,54,95.4,54,95.4z"/>
		<path class="st4" d="M68,91.4L68,91.4L68,91.4C68,91.4,67.9,91.4,68,91.4c-0.5,0.9-1,1.9-1.4,2.8c1.3,0.5,2.4,0.3,2.6-1.2
			c0-0.2-0.2-0.5-0.4-0.8C68.5,92,68.2,91.7,68,91.4z"/>
		<path class="st4" d="M65.1,89c0.1,0,0.3,0,0.5,0s0.4,0.1,0.5,0.1s0.3,0,0.4,0l0,0c0.4,0,0.7-0.3,0.6-1.2l0,0
			c-1.3-0.3-2.4,0-2.6,1.5c0-0.2,0.1-0.3,0.2-0.4C64.9,89,65,89,65.1,89z"/>
		<path class="st4" d="M60.6,95.7c-0.1,0.5-0.1,0.9-0.2,1.4c0.5-0.2,0.9-0.3,1.4-0.5C61.4,96.3,61,96,60.6,95.7L60.6,95.7z"/>
		<path class="st4" d="M38.5,97.9c0.4,0.1,0.7,0.3,1.1,0.4c0.2,0,0.4,0,1.1,0c-0.6-0.5-0.9-0.9-1.1-0.9
			C39.2,97.4,38.9,97.7,38.5,97.9z"/>
		<path class="st4" d="M57.4,92.4c0.1,0.1,0.2,0.4,0.2,0.4c0.2,0,0.4-0.1,0.8-0.3c-0.3-0.1-0.4-0.3-0.5-0.3
			C57.7,92.3,57.5,92.4,57.4,92.4z"/>
		<path class="st4" d="M67,92.3c0-0.1-0.1-0.2-0.2-0.2l0,0c-0.1,0.1-0.1,0.2-0.2,0.2C66.7,92.3,66.8,92.4,67,92.3
			C66.9,92.4,67,92.3,67,92.3z"/>
		<path class="st4" d="M56.3,91.8c0.2-0.1,0.5-0.1,0.7-0.2c0-0.1-0.1-0.2-0.1-0.2C56.7,91.6,56.5,91.7,56.3,91.8L56.3,91.8
			L56.3,91.8z"/>
		<path class="st4" d="M60.2,95.7c-0.1,0-0.2,0-0.3,0.1c0,0.1,0.1,0.1,0.1,0.2C60,95.8,60.1,95.8,60.2,95.7L60.2,95.7L60.2,95.7
			L60.2,95.7z"/>
		<path class="st4" d="M60.2,95.7L60.2,95.7L60.2,95.7L60.2,95.7L60.2,95.7z"/>
		<path class="st4" d="M60.4,95.7h0.2l0,0C60.5,95.7,60.5,95.7,60.4,95.7z"/>
		<path class="st4" d="M60.3,95.7C60.4,95.7,60.4,95.7,60.3,95.7C60.4,95.7,60.4,95.7,60.3,95.7C60.4,95.7,60.4,95.7,60.3,95.7z"/>
		<path class="st4" d="M68,91.4L68,91.4C68,91.4,67.9,91.4,68,91.4L68,91.4L68,91.4C67.9,91.4,68,91.4,68,91.4z"/>
		<path class="st4" d="M79.6,82.5C79.6,82.5,79.5,82.5,79.6,82.5C79.5,82.5,79.5,82.5,79.6,82.5L79.6,82.5L79.6,82.5z"/>
		<path class="st6" d="M33.5,14c0.4-0.2,0.9-0.4,1.3-0.7c1.1-0.9,2.6-1.6,4.3-2.1c1.5-0.4,3.1-0.7,4.9-0.9
			c7.3-0.8,16.3,0.6,20.1,3.9c0.5,0.1,1,0.1,1.5,0.2c4.1,1.7,6,4.7,7.2,8c0.3,0.8,0.5,1.5,0.7,2.3c0.6,1.9,1,3.9,1.6,5.8
			c1,3.3,0.6,7,3.3,9.8c0-1.2,0-2.3,0-3.5c-0.1-1.2-0.2-2.3-0.3-3.5c-0.8-10-4.6-18.4-12.9-24.4C60.8,7.5,56.4,6,52,4.5
			c-1.3,0-2.7-0.1-4-0.1c-0.9,0.2-1.8,0.3-2.7,0.5c-0.2,0-0.5,0-0.7,0.1c-0.9,0.4-1.7,0.9-2.6,1.3c0.9-0.4,1.7-0.9,2.6-1.3
			c-0.9,0.4-1.7,0.9-2.6,1.3c-2.9,2.1-5.7,4.2-8.6,6.3l0,0l0,0C33.5,13,33.5,13.5,33.5,14z"/>
		<path class="st7" d="M32.3,63.3c1.2-0.3,2.2-1.5,3.4-1.3c0.2-0.1,0.3-0.3,0.5-0.4c0-0.1,0-0.2,0-0.2v-0.1v-0.1
			c-0.1-0.3-0.3-0.7-0.4-1c-0.1-0.4-0.2-0.8-0.3-1.2c-0.4-0.8-0.7-1.5-1.1-2.3c-0.5,0.4-0.9,0.7-1.4,1.1c-0.1-0.5-0.3-1-0.3-1.5
			c-0.6-3.9-1.4-7.8-1.6-11.7c0-0.9,2.1-2.6,3.3-2.6c1.7-0.1,3.5,0.4,5.2,0.8c0.6,0.1,1.2,0.3,1.7,0.4c0.6-0.5,1.1-0.9,1.7-1.4
			c-1-0.7-1.9-1.9-2.9-2c-0.8,0-1.6,0-2.2,0c-0.4,0-0.7,0-0.9-0.1c-0.1-0.1-0.2-0.1-0.3-0.3c-0.1-0.4,0.4-1.1,1.8-2.3
			c-0.3,0-0.5,0-0.8,0c-0.1,0.1-0.3,0.2-0.4,0.2c-0.2,0-0.5,0-0.7,0c-0.8,0.2-1.6,0.5-2.5,0.7c-0.4,0.1-0.9,0.1-1.3,0.2
			c-0.3,0.5-0.6,1-0.9,1.5c-0.4,0.4-0.8,1-1.3,1.2c-0.3,0.1-0.8-0.3-1.2-0.4c0.4-0.4,0.8-0.8,1.3-1.2s1-0.8,1.5-1.2l0,0l0,0
			c0.2-0.2,0.5-0.4,0.7-0.7c0.8-0.7,1.6-1.5,2.4-2.2c0.1-0.1,0.3-0.2,0.4-0.3l0,0c0.2-0.1,0.3-0.2,0.5-0.2c0.4,0,0.8,0,1.1-0.1
			c1.4,0.1,2.8,0.2,4.2,0.3c0.8-0.4,1.6-0.8,2.4-1.2c-0.1-0.5-0.3-1-0.4-1.5l-0.1-0.1c-0.1-0.1-0.2-0.2-0.3-0.3
			c-0.5-0.6-1-1.3-1.6-1.9c-0.4,0-0.7,0-1.1,0c-0.2,0.1-0.3,0.2-0.5,0.3c-0.6,0.4-1.3,0.9-1.9,1.3c-0.1,0-0.3,0-0.4,0
			c-0.8,0.1-1.6,0.3-2.3,0.4c-0.4,0.1-0.8,0.2-1.2,0.3c-0.1,0-0.2,0-0.3,0c-0.8-0.1-1.6-0.2-2.3-0.3c-0.2,1.4-0.3,2.7-0.5,4.1
			c-0.7-0.3-1.5-0.7-2.2-1l0,0c-0.3,1.7-0.5,3.3-0.8,5c0,1.2,0,2.3-0.1,3.5c0.8,2.6-2.7,0.9-2.7,2.7c0,0.4,0,0.7,0,1.1
			c1,0.4,1.8,0.9,2.3,1.5c0.1,0.1,0.1,0.1,0.1,0.2c0.3,0.4,0.5,0.8,0.6,1.3s0.2,1,0.1,1.6c0,0.3-0.1,0.6-0.1,1
			c-0.1,0.6-0.7,1.2-1.1,1.8c0.9,2.6,1.8,5.2,2.7,7.7c0.2,0.1,0.4,0.3,0.6,0.4C31.2,63.3,31.8,63.4,32.3,63.3z"/>
		<path class="st7" d="M40.5,29.8L40.5,29.8L40.5,29.8z"/>
		<path class="st8" d="M28.8,34.9L28.8,34.9c0-0.1,0.1-0.2,0.1-0.3c0.1-0.2,0.1-0.3,0.2-0.5c0-0.3,0-0.5,0.1-0.8
			c0-0.3,0.1-0.5,0.1-0.8c0-0.2,0-0.5,0-0.7c0-2.5,0-4.9-0.1-7.4c-0.1-0.8-0.2-1.5-0.4-2.3C27.9,28,26.6,33.9,28,39.9
			C28.3,38.2,28.6,36.5,28.8,34.9L28.8,34.9z"/>
		<path class="st5" d="M30.7,18.9c0.1-0.1,0.2-0.2,0.3-0.3c-0.1-0.1-0.2-0.3-0.4-0.4l0,0c-0.2,0.1-0.5,0.2-0.7,0.4
			c-0.1,0.1-0.3,0.2-0.4,0.4c-0.2,0.7-0.4,1.3-0.6,2v0.1c0,0.4-0.1,0.7-0.1,1.1c0.1,0.8,0.2,1.5,0.4,2.3
			C29.7,22.6,30.2,20.7,30.7,18.9z"/>
		<path class="st7" d="M74.8,54.1c0.2-0.5,0.7-1,1.7-1.4c0-0.2,0-0.5-0.1-0.7c-0.1-1.7-0.3-3.4-0.4-5.1c-0.4,0.9-0.8,1.8-1.2,2.7
			c-0.3-2.6-1.4-5.3,1.7-7.1c-0.7-0.2-1.3-0.4-2-0.6l0,0l0,0l0,0c-0.1-0.3-0.2-0.5-0.4-0.8c-0.3-0.8-0.6-1.5-0.8-2.3
			c-1.2-3-2.5-6-3.7-9c-0.4-1-0.8-2-1.2-3c-0.1-0.3,0.9-1,1.4-1.6c0-0.3,0-0.5,0-0.8c-0.9-2.5-1.8-4.9-2.6-7.4l0,0
			c-0.4-0.3-0.8-0.5-1.2-0.8c-0.1,0-0.3-0.1-0.4-0.1c-2.5-0.9-5-1.7-7.4-2.6c-0.9,0-1.8-0.1-2.6-0.1c-0.8-0.3-1.6-0.7-2.3-0.5
			c-0.2,0-0.3,0.1-0.5,0.2c-0.3,0.2-0.5,0.4-0.8,0.8c2.8,0.8,5.9,1.1,8.4,2.5c4.4,2.6,5.5,7.6,7.4,12c-1.5,0.2-3,0.5-4.5,0.7
			c0,0.5,0,1,0,1.5c1.4,1.7,2.9,3.3,4.3,5c3.7,0.7,3.7,2.7,3.4,4.8c-0.2,1.3-0.6,2.6-0.3,3.7l0,0c0,0.1,0,0.3,0,0.4
			c0.1,1,0.3,2,0.4,3.1c0.1,0.9,0.3,1.8,0.4,2.7c0,1,0.4,2.1,0.6,3.2c0,0.1,0,0.3,0.1,0.4s0,0.3,0,0.4s0,0.3,0,0.4
			c-0.1,0.6-0.3,1.3-1,1.9c0,0.5,0,1,0,1.5C71.1,58.4,71,58.7,71,59c-0.1,0.3-0.2,0.6-0.2,0.9c-0.4,1.7-0.3,3.3,2.7,3.6
			c0-0.3,0-0.5,0.1-0.8c-1-1.9-2-3.7,1.1-4.7c0.3,0,0.6,0,0.9,0c-0.1-0.5-0.2-1-0.4-1.5C74.7,55.7,74.5,54.8,74.8,54.1z"/>
		<path class="st0" d="M70,81.5c-2.2,3.8-7.4,1.5-10,4.9c-2,2.6,2.7,0.3,1.2,2c4.6-0.3,7.7-3.2,10.6-6.3
			C71.2,81.9,70.1,81.4,70,81.5z"/>
		<path class="st7" d="M78,43.3c1.2,0.3,1.8,0.7,2.1,1.4c0.4,1,0,2.5-0.1,3.7c0.5-0.7,1-1.4,1.4-2.1c0.1,0.8,0.3,1.6,0.1,2.4
			c-0.1,0.3-1.1,0.3-1.7,0.4C79.5,50,79.3,51,79,51.9c0.7-0.4,1.4-0.8,2.1-1.1c2.5-1.3,1.2-3.6,1.5-5.4c-0.5-0.8-1-1.6-1.5-2.4
			c-0.1-0.3-0.3-0.7-0.4-1c-0.7-0.3-1.5-0.7-2.2-1c-0.5,0.5-0.9,1-1.4,1.5C77.4,42.7,77.7,43,78,43.3z"/>
		<path class="st9" d="M76.8,53.9c-0.1-0.4-0.2-0.8-0.3-1.3c-0.9,0.4-1.4,0.9-1.7,1.4c-0.3,0.8-0.1,1.6,0.1,2.5
			c0.1,0.5,0.3,1,0.4,1.5l0,0c0.3,0,0.5,0,0.8,0c0.1-0.1,0.3-0.2,0.4-0.4c1.6-2.3,3.2-4.6,4.7-6.9c-0.7,0.4-1.4,0.8-2.1,1.1
			C78.4,52.6,77.6,53.3,76.8,53.9z"/>
		<path class="st7" d="M70.6,74.2c0.1,0.2,0.5,0.2,0.8,0.3c0.1-0.5,0.3-1.1,0.4-1.6c0.2-1.2,0.5-2.4,0.7-3.5
			c0.4,0.3,0.8,0.6,1.2,0.8c-0.1-1.9-0.3-3.9-0.4-5.8c-1.1,2.8-2.2,5.5-3.2,8.3C69.9,73,70.4,73.7,70.6,74.2z"/>
		<path class="st7" d="M77.7,75.6c0.2-0.4-2.8-2-3.6-2.8c-0.2,2.2,0.8,6.1,0.6,8.3C75.7,79.8,77.1,77.2,77.7,75.6z"/>
		<path class="st3" d="M73.4,62.8c0.4-1.6,0.7-3.1,1.1-4.7C71.4,59,72.4,60.9,73.4,62.8z"/>
		<path class="st10" d="M76.1,58.1c0.1-0.1,0.3-0.2,0.4-0.4"/>
		<path class="st0" d="M63.7,55.4L63.7,55.4L63.7,55.4z"/>
		<path class="st0" d="M67.2,37.9c-0.9,0-1.8,0-2.7,0l0,0l0,0l0,0l0,0c0,0.2-0.1,0.3-0.1,0.5c-0.2,0.6-0.5,1.1-0.9,1.4l0,0
			c-0.3,0.3-0.6,0.5-1,0.6c-1,0.4-2.1,0.6-2.8,0.8c-4.6,1.6-1.7,3.2-0.4,5c0.7,0.9,1.5,1.8,2.3,2.7c1.3,1.5,2.5,3,2.2,5.4
			c0,0.3,0,0.6,0,0.9c0,0.1,0,0.1,0,0.2c0,0.4,0,0.8,0,1.2c-0.2,0.4-0.3,0.8-0.5,1.2c0,0.3,0,0.5,0,0.8c1.1,1.9,2.1,2.5,3.1,2.5
			c1.6,0,3.2-1.9,4.8-2.9l0,0c0-0.5,0-1,0-1.5c-2.4-2.2-0.5-4.2,0.4-6.2c-0.1-0.9-0.3-1.8-0.4-2.7c-0.6-0.9-1.1-1.8-1.7-2.6
			c0.4-0.1,0.9-0.3,1.3-0.4c0-0.1,0-0.3,0-0.4l0,0l0,0C69.5,42.1,68.3,40,67.2,37.9z"/>
		<path class="st0" d="M64.5,37.9L64.5,37.9L64.5,37.9z"/>
		<path class="st8" d="M59.3,64.8c0-0.2-0.1-0.3,0-0.5c0-0.2,0-0.4,0.1-0.6c0.1-0.3,0.1-0.6,0.2-0.9c0-0.3,0-0.6-0.1-0.8
			c-0.5,0.2-1,0.3-1.5,0.5c-0.4,0.1-0.8,0.2-1.2,0.3c-0.5,0.9-1,1.8-1.8,2.4c-0.3,0.2-0.6,0.4-0.9,0.5c-0.6,0.2-1.2,0.1-2-0.1
			c-0.3,0-0.5,0-0.8,0c-0.4-0.1-0.7-0.2-0.8-0.3c-0.1-0.1-0.2-0.2-0.2-0.3s0-0.2,0-0.3c0-0.1,0-0.1,0-0.2s0.1-0.2,0.2-0.3
			c0.2-0.3,0.4-0.7,0.5-1l0,0c-0.2-0.2-0.5-0.4-0.7-0.7c-0.3,0.1-0.5,0.2-0.8,0.3c-0.1,0-0.3,0-0.4,0c-1.1,0-2.3,0.1-3.4,0.1
			c-0.9,1-1.7,2-2.6,3.1c-0.3-0.4-0.7-0.8-1-1.2c0-0.1,0-0.2-0.1-0.3c-1.2-1.3-2.3-2.6-3.5-3.9c-0.6,2.4,0.3,3.9,1.6,5.2
			c0.4,0.4,0.8,0.7,1.2,1s0.8,0.7,1.2,1c1,0.8,1.8,1.7,2.1,2.8c0.8,3.3,3.4,2.1,4.9,3.4c0.5,0.4,2.8-1.5,4.3-2.3
			c1.2-0.6-2.1-2.6,0.5-2.2c1.2,0.2,2.2,2.3,3.2,3.5c0.5-0.3,1-0.7,1.4-1.1c0.5-0.5,0.9-1.1,1.2-1.7c0.7-1.4,0.9-3,1.2-4.6
			C59.9,65.5,59.4,65.3,59.3,64.8z M46.3,69.3L46.3,69.3C46.3,69.3,46.2,69.4,46.3,69.3L46.3,69.3L46.3,69.3
			C46.2,69.3,46.2,69.3,46.3,69.3c-0.1-0.4,0-0.7,0.1-1c0.3-0.7,1.2-0.8,2-0.7c0.5,0,0.9,0.9,1.3,1.4C48.5,69.1,47.4,69.2,46.3,69.3
			z M50.7,70.2c-0.3-0.5-0.5-0.9-0.9-1.5c0.4-0.8,0.8-1.5,1.1-2.2c0.2,0.4,0.7,0.9,0.6,1.3C51.4,68.6,51,69.4,50.7,70.2z"/>
		<path class="st6" d="M48.6,76.7c0.3,0,0.5,0,0.8,0c0.4,0,0.7,0,1.1,0l0,0c0.3-0.1,0.5-0.3,0.8-0.4c0.8-0.3,1.6-0.7,2.4-1
			c1.3-0.8,2.6-1.6,3.9-2.4c-1.1-1.2-2-3.3-3.2-3.5c-2.6-0.4,0.7,1.6-0.5,2.2c-1.5,0.8-3.8,2.7-4.3,2.3c-1.5-1.2-4.1,0-4.9-3.4
			c-0.3-1.1-1.1-2-2.1-2.8c-0.4-0.3-0.8-0.7-1.2-1s-0.8-0.7-1.2-1c-1.3-1.3-2.2-2.8-1.6-5.2c0-0.6-0.1-1.3-0.1-1.9
			c-3.2-1-0.1,2.9-2.1,2.7v0.1c0,0.1,0,0.2,0,0.2c0,0.4,0,0.8,0,1.2c-0.4,7.3,3.3,11.5,10,13.6c0.5,0.1,1,0.1,1.5,0.2
			C48,76.6,48.3,76.6,48.6,76.7z"/>
		<path class="st7" d="M50.5,90.7c-6.3-8.1,1.1-3,3-3.2c0.3,0,0.8-0.7,0.8-0.8c-1.4-3.1-2.8-6.1-4.2-9.2c-0.2-0.3-0.5-0.5-0.7-0.8
			c-0.3,0-0.5,0-0.8,0s-0.5-0.1-0.8-0.1c-0.5-0.1-1-0.1-1.5-0.2c-0.9,0.2-1.9,0.5-2.8,0.7c1.4,0.8,2.9,1.6,4.3,2.4
			c0.5,0.3,1.5,0.8,1.4,0.9c-0.7,2,4.5,2.4,1.5,4.5c-0.9,0.7-4.3-0.1-4.8-1.1c-1.4-2.7-4.3-1.8-6-3.3c-0.1,0.4-0.4,1.2-0.3,1.2
			c2.5,1.3,0.4,6.5,5.4,6c1.7-0.2,3.5,1.9,5.3,2.9C50.3,90.6,50.4,90.6,50.5,90.7L50.5,90.7z"/>
		<path class="st6" d="M61.8,56.3c0-0.1,0-0.1-0.1-0.2c-0.2-0.3-0.5-0.3-1.1,0.4c-0.4,1.8-0.8,3.6-1.2,5.4c0.1,0.2,0.1,0.5,0.1,0.8
			s-0.1,0.6-0.2,0.9c0,0.2-0.1,0.4-0.1,0.6c0,0.2,0,0.4,0,0.5c0.1,0.5,0.6,0.8,1.9,0.6c0.1-1.4,0.2-2.8,0.2-4.2
			c0.2-1.3,0.4-2.6,0.6-4C62,57,62,56.6,61.8,56.3z"/>
		<path class="st11" d="M63.2,57.7c-0.1-0.1-0.2-0.1-0.3-0.2c-0.1-0.1-0.2-0.1-0.3-0.2c-0.2,0-0.3,0-0.5,0c-0.2,1.3-0.4,2.6-0.6,4
			c0.6-0.9,1.2-1.8,1.7-2.8l0,0C63.2,58.2,63.2,58,63.2,57.7z"/>
		<path class="st10" d="M51.2,76.3c0.8-0.3,1.6-0.7,2.4-1"/>
		<path class="st11" d="M49.4,76.7c0.2,0.3,0.5,0.5,0.7,0.8c0.1-0.3,0.2-0.6,0.3-0.8l0,0C50.1,76.6,49.7,76.7,49.4,76.7z"/>
		<path class="st11" d="M37.7,77.4L37.7,77.4L37.7,77.4L37.7,77.4c-0.5,1-1,1.9-1.5,2.8c0.1,0.9,0.3,1.8,0.4,2.7
			c0.1,0.4,0.2,0.7,0.4,1.1c0.1,0.1,0.3,0.3,0.4,0.4c0.3,0.5,0.7,1,1.1,1.4c0.4,0.4,0.8,0.8,1.2,1.2c0.8,0.7,1.7,1.3,2.7,1.8
			c1.9,1,4,1.6,6.3,1.9c0.5,0,1.1,0,1.6-0.1c-1.8-1-3.7-3-5.3-2.9c-5,0.5-2.9-4.7-5.4-6c-0.1,0,0.2-0.8,0.3-1.2
			c1.7,1.5,4.6,0.6,6,3.3c0.5,1,3.8,1.7,4.8,1.1c3.1-2.2-2.1-2.5-1.5-4.5c0-0.1-0.9-0.6-1.4-0.9c-1.4-0.8-2.9-1.6-4.3-2.4
			c0.9-0.2,1.9-0.5,2.8-0.7c-6.7-2.1-10.4-6.3-10-13.6c-0.2-0.3-0.3-0.5-0.5-0.8c-1.2-0.2-2.3,1.1-3.4,1.3c-0.5,0.1-1.1,0-1.7-0.5
			c1.1,2.1,2.1,4.1,3.2,6.2c0.4,0.7,0.8,1.4,1.2,2.1c0.4,0.8,0.8,1.7,1.1,2.5C36.7,74.8,37.2,76.1,37.7,77.4z"/>
		<path class="st3" d="M37.7,77.4L37.7,77.4c-0.5-1.3-1.1-2.6-1.6-3.9c-0.3,1.5-1.1,3,0.5,4.2C37,77.6,37.4,77.5,37.7,77.4z"/>
		<path class="st12" d="M37.7,77.5C37.7,77.4,37.7,77.4,37.7,77.5c-0.3,0-0.7,0.1-1,0.2c-0.3,0.7-0.7,1.4-1,2.1
			c0.2,0.1,0.3,0.3,0.5,0.4C36.7,79.3,37.2,78.4,37.7,77.5z"/>
		<path class="st1" d="M54.6,93.2c-0.4-0.1-0.8-0.1-1.5-0.2c-0.4,0.1-1,0.2-1.5,0.4c0.6,0.1,1.2,0.3,1.8,0.3
			C53.8,93.6,54.2,93.3,54.6,93.2z"/>
		<path class="st6" d="M37.3,84.5c-0.1-0.1-0.3-0.3-0.4-0.4c-0.1-0.4-0.2-0.7-0.4-1.1c-0.1-0.9-0.3-1.8-0.4-2.7
			c-0.2-0.1-0.3-0.3-0.5-0.4c-0.1,1.4-0.3,2.7,0.5,3.8C36.5,83.9,36.8,84.2,37.3,84.5z"/>
		<path class="st1" d="M50.4,93.3c0-0.2,0.1-0.5,0.1-0.7l0,0c-0.1,0.2-0.2,0.4-0.3,0.6C50.2,93.2,50.3,93.3,50.4,93.3z"/>
		<path class="st8" d="M73.6,24.7c-0.2-0.8-0.5-1.5-0.7-2.3c-1.2-3.4-3.1-6.4-7.2-8c0,0.6,0,1.2,0.1,1.8c0.1,0,0.3,0,0.4,0.1
			c0.4,0.3,0.8,0.5,1.2,0.8l0,0c4,1.4,2.2,4.8,2.6,7.4c0,0.3,0,0.5,0,0.8c1.2,4.5,2.3,9.1,3.5,13.6c0.3,0.8,0.6,1.5,0.8,2.3
			c0.1,0.3,0.2,0.5,0.4,0.8l0,0l0,0c0.7,0.2,1.3,0.4,2,0.6c0.2,0,0.4,0,0.6,0l0,0c0.5-0.5,0.9-1,1.4-1.5c0-0.2-0.1-0.5-0.1-0.7
			c-2.7-2.7-2.2-6.5-3.3-9.8C74.6,28.6,74.1,26.6,73.6,24.7z"/>
		<path class="st8" d="M38.1,14.7L38.1,14.7L38.1,14.7z"/>
		<path class="st8" d="M30.7,18.2L30.7,18.2L30.7,18.2c0.7-1.5,1.7-2.4,2.9-2.9s2.6-0.6,4.1-0.6c0.1,0,0.3,0,0.4-0.1
			c0.4-0.8,1-1.3,1.6-1.6c0.3-0.1,0.6-0.3,1-0.3s0.7-0.1,1-0.1c1.4-0.1,2.9,0,4.1-0.7c0.4,0,0.8,0,1.2,0c2.9,0.4,6.2-2,8.6,1.5
			c0.9,0,1.8,0.1,2.6,0.1c2,0.2,3.9,0.4,5.9,0.6c-3.8-3.3-12.7-4.7-20.1-3.9c-1.7,0.2-3.4,0.5-4.9,0.9c-1.8,0.5-3.3,1.2-4.3,2.1
			c-0.4,0.3-0.9,0.5-1.3,0.7c0-0.5,0-1,0-1.5l0,0c-0.9,1.3-1.9,2.5-2.8,3.8c-0.3,0.7-0.5,1.3-0.8,2c0,0.1,0.1,0.3,0.1,0.4
			C30.2,18.4,30.5,18.3,30.7,18.2L30.7,18.2z M56.6,12.3l-0.1,0.1l-0.1-0.1H56.6z"/>
		<path class="st11" d="M65.6,14.3L65.6,14.3c-0.5-0.1-1-0.1-1.5-0.2c-2-0.2-3.9-0.4-5.9-0.6c2.5,0.9,5,1.7,7.4,2.6
			C65.6,15.5,65.6,14.9,65.6,14.3z"/>
		<path class="st10" d="M44.7,4.9c-0.9,0.4-1.7,0.9-2.6,1.3"/>
		<path class="st0" d="M44.1,32.2c0.1,0,0.2,0,0.4,0c0.4,0,0.8-0.2,1.2-0.2c0.3-0.1,0.5-0.1,0.8-0.1c1,0,1.5,0.5,0.5,2.9
			c1.3,0.5,2.6,0.9,3.9,1.4c-0.1-1.1-0.5-2.2-0.4-3.2c0.2-2.6-0.6-6.3,4.3-5.1c1.9,0.1,3.9,0.3,5.8,0.4c0-0.4,0.1-0.8,0.1-1.1
			c0-1-0.2-1.6-0.5-1.9c-0.1-0.1-0.1-0.1-0.2-0.2c-0.1-0.1-0.3-0.2-0.4-0.2c-0.9-0.3-2.2,0.1-3.3,0.2c-0.2,0-0.4,0-0.6,0.1
			c-0.6,0-1.2-0.1-1.6-0.5c-3.7,4.2-10.5-0.8-13.7,4.8c0,0.1,0,0.2,0.1,0.3l0,0c0.4,0,0.7,0,1.1,0c0.5,0.6,1,1.3,1.6,1.9
			c0.1,0.1,0.2,0.2,0.3,0.3l0.1,0.1C43.7,32.2,43.9,32.2,44.1,32.2z"/>
		<path class="st9" d="M36.1,50.8L36.1,50.8c1.3-2,2.6-4,3.8-5.9l0,0c0.4-0.6,0.8-1.3,1.2-1.9c-0.6-0.1-1.2-0.2-1.7-0.4
			c-1.7-0.4-3.5-0.9-5.2-0.8c-1.2,0-3.4,1.8-3.3,2.6c0.2,3.9,1,7.8,1.6,11.7c0.1,0.5,0.2,1,0.3,1.5c0.5-0.4,0.9-0.7,1.4-1.1
			c0.5-1.5,1-3.1,1.5-4.6C35.9,51.5,36,51.2,36.1,50.8z"/>
		<path class="st11" d="M40,44.9L40,44.9L40,44.9L40,44.9c0,0.3,0.1,0.6,0.1,1c1.9-1.7,4.7-2.5,5-5.8c0.2-2.1,0.9-4.1-0.5-6l0,0
			c-0.3-0.1-0.5-0.3-0.8-0.4c-0.8,0.4-1.6,0.8-2.4,1.2c0.1,0.7,0.2,1.5,0.3,2.2c-1-0.4-2-0.7-2.9-1.1c-0.1,0.3-0.3,0.6-0.4,0.9l0,0
			c-1.4,1.3-1.9,2-1.8,2.3c0,0.1,0.1,0.2,0.3,0.3s0.5,0.1,0.9,0.1c0.6,0,1.4,0,2.2,0c1,0,1.9,1.3,2.9,2c-0.6,0.5-1.1,0.9-1.7,1.4
			l0,0C40.8,43.6,40.4,44.3,40,44.9z"/>
		<path class="st8" d="M38.3,58.5c1.1,0.6,2.2,1,3.3,1.2c0.4,0.1,0.7,0.1,1.1,0.1c0.4,0,0.7,0,1.1-0.1c1.1-0.1,2.2-0.5,3.3-1.2
			c-0.2-0.1-0.4-0.2-0.5-0.2c-0.2-0.1-0.4-0.2-0.5-0.2c-0.2,0-0.5,0-0.7,0c-0.4,0-0.8,0-1.1,0s-0.5,0-0.7,0c-1-0.2-1.6-0.8-0.9-2.9
			c-0.1,0-0.3,0-0.4,0c-0.3,0-0.5,0-0.8,0c0.1,1.1,0.2,2.1,0.4,3.2c-1.2-0.7-2.3-1.4-3.5-2.2c-1.8-0.9,2.6-5-2.2-4.2
			c-0.5,1.5-1,3.1-1.5,4.6c0.4,0.8,0.7,1.5,1.1,2.3c0.3,0.2,0.5,0.4,0.8,0.6c-0.2,0.2-0.3,0.4-0.5,0.6c0.1,0.3,0.3,0.7,0.4,1v0.1
			C38.2,61.4,35.2,57.5,38.3,58.5z"/>
		<path class="st11" d="M30.9,25c-0.1-2-0.1-4-0.2-6.1c-0.5,1.8-1,3.6-1.5,5.5c0,2.5,0,4.9,0.1,7.4c0.2,0.1,0.3,0.3,0.5,0.4
			c-0.2,0.1-0.3,0.2-0.5,0.3c0,0.3-0.1,0.5-0.1,0.8c0.3,0.1,0.6,0.3,0.9,0.4c-0.3,0.1-0.6,0.2-0.9,0.4c-0.1,0.2-0.1,0.3-0.2,0.5
			c0,0.1-0.1,0.2-0.1,0.3l0,0c0.7,0.3,1.5,0.7,2.2,1c0.2-1.4,0.3-2.7,0.5-4.1c0-0.2,0-0.3,0-0.5C31.3,29.2,31.1,27.1,30.9,25z"/>
		<path class="st11" d="M28.5,51.9c0-0.6,0-1.1-0.1-1.6s-0.3-0.9-0.6-1.3c-0.1-0.1-0.1-0.2-0.1-0.2c-0.5-0.6-1.3-1.1-2.3-1.5
			c-0.1,0.3-0.2,0.6-0.3,0.8c0.6,2,1.3,3.9,1.9,5.9c0.1,0.3,0.3,0.5,0.4,0.8c0.4-0.6,1-1.1,1.1-1.8C28.4,52.5,28.5,52.2,28.5,51.9z"
			/>
		<path class="st6" d="M38.5,36.9c0.1-0.3,0.3-0.6,0.4-0.9c-0.5-0.5-1-1-1.6-1.5c-0.4,0-0.8,0-1.1,0.1c-0.2,0.1-0.3,0.2-0.5,0.2l0,0
			c-0.1,0.1-0.3,0.2-0.4,0.3c-0.8,0.7-1.6,1.5-2.4,2.2c-0.2,0.2-0.5,0.4-0.7,0.7l0,0c0.2,0.1,0.4,0.1,0.6,0.2
			c0.4-0.1,0.9-0.1,1.3-0.2c0.8-0.2,1.6-0.5,2.5-0.7c0.2,0,0.5,0,0.7,0c0.1-0.1,0.3-0.2,0.4-0.2C38,36.9,38.2,36.9,38.5,36.9z"/>
		<path class="st8" d="M38.9,36c1,0.4,2,0.7,2.9,1.1c-0.1-0.7-0.2-1.5-0.3-2.2l0,0c-1.4-0.1-2.8-0.2-4.2-0.3
			C37.9,35,38.4,35.5,38.9,36z"/>
		<path class="st9" d="M44.7,34.1L44.7,34.1L44.7,34.1c0.8,0.3,1.6,0.5,2.3,0.8l0,0c1-2.5,0.4-3-0.5-2.9c-0.2,0-0.5,0.1-0.8,0.1
			c-0.4,0.1-0.8,0.2-1.2,0.2c-0.1,0-0.3,0-0.4,0c-0.2,0-0.4,0-0.6-0.1c0.1,0.5,0.3,1,0.4,1.5l0,0C44.2,33.8,44.4,33.9,44.7,34.1z"/>
		<path class="st8" d="M35.4,30c-0.1,0-0.3,0-0.4,0c-1.2,0.4-2.4,0.8-3.5,1.3c0,0.2,0,0.3,0,0.5c0.8,0.1,1.6,0.2,2.3,0.3
			c0.1,0,0.2,0,0.3,0c0.4-0.1,0.8-0.2,1.2-0.3c0.3-0.6,0.5-1.1,0.8-1.7C35.9,30,35.7,30,35.4,30z"/>
		<path class="st11" d="M40.4,29.4c-0.7,0-1.3,0-2,0.1c-0.1,0.6-0.2,1.3-0.3,1.9c0.6-0.4,1.3-0.9,1.9-1.3c0.2-0.1,0.3-0.2,0.5-0.3
			l0,0C40.5,29.6,40.4,29.5,40.4,29.4z"/>
		<path class="st11" d="M30.8,39.1c-0.4,0.4-0.8,0.8-1.3,1.2c0.4,0.2,0.9,0.6,1.2,0.4c0.5-0.2,0.8-0.8,1.3-1.2
			C31.5,39.4,31.2,39.3,30.8,39.1z"/>
		<path class="st11" d="M36.9,29.8c-0.3,0-0.5,0-0.8,0c0,0.1,0,0.2,0,0.3c-0.3,0.6-0.5,1.1-0.8,1.7c0.8-0.1,1.6-0.3,2.3-0.4
			C37.5,30.8,37.2,30.3,36.9,29.8L36.9,29.8z"/>
		<path class="st8" d="M38.4,29.5c-0.5,0.1-1,0.2-1.5,0.3c0.3,0.5,0.5,1,0.8,1.6c0.1,0,0.3,0,0.4,0C38.2,30.7,38.3,30.1,38.4,29.5z"
			/>
		<path class="st8" d="M32.2,37.9c-0.5,0.4-1,0.8-1.5,1.2c0.4,0.1,0.8,0.3,1.2,0.4c0.3-0.5,0.6-1,0.9-1.5C32.6,38,32.4,38,32.2,37.9
			z"/>
		<path class="st10" d="M34.1,37.9c0.8-0.2,1.6-0.5,2.5-0.7"/>
		<path class="st10" d="M41.6,29.8c0.5,0.6,1,1.3,1.6,1.9"/>
		<path class="st11" d="M36.2,59.5c-0.3-0.2-0.5-0.4-0.8-0.6c0.1,0.4,0.2,0.8,0.3,1.2C35.9,59.9,36,59.7,36.2,59.5z"/>
		<path class="st8" d="M35.7,61.9c0.2,0.3,0.3,0.5,0.5,0.8c0-0.4,0-0.8,0-1.2C36,61.7,35.9,61.8,35.7,61.9z"/>
		<path class="st10" d="M33.9,32.1c0.1,0,0.2,0,0.3,0"/>
		<path class="st10" d="M37.3,37.1c0.1-0.1,0.3-0.2,0.4-0.2"/>
		<path class="st10" d="M35.7,34.8c-0.1,0.1-0.3,0.2-0.4,0.3"/>
		<path class="st10" d="M36.2,34.6c-0.2,0.1-0.3,0.2-0.5,0.2"/>
		<path class="st13" d="M29.2,18.9L29.2,18.9c0,0-0.1,0-0.1-0.1C29.1,18.9,29.1,18.9,29.2,18.9z"/>
		<path class="st7" d="M30.1,33.7c-0.3-0.1-0.6-0.3-0.9-0.4c0,0.3,0,0.5-0.1,0.8C29.4,33.9,29.8,33.8,30.1,33.7z"/>
		<path class="st7" d="M29.7,32.2c-0.2-0.1-0.3-0.3-0.5-0.4c0,0.2,0,0.5,0,0.7C29.4,32.4,29.6,32.3,29.7,32.2z"/>
		<path class="st7" d="M30.7,18.9c0.1,2,0.1,4,0.2,6.1s0.4,4.2,0.5,6.3c1.2-0.4,2.4-0.8,3.5-1.3c0.5-5.1,2.5-9.6,6.5-12.9
			c1.2-1,0.4-1.5-0.1-2.1c-0.2-0.3-0.3-0.5-0.2-0.8c-1,0.1-2.1,0.3-3.1,0.4l0,0c-0.1,0-0.2,0-0.4,0.1c-2.2,1.3-4.4,2.6-6.7,3.8
			C31,18.7,30.8,18.8,30.7,18.9z"/>
		<path class="st11" d="M37.7,14.7c-1.5-0.1-2.9,0.1-4.1,0.6s-2.2,1.4-2.9,2.9l0,0c0.1,0.1,0.2,0.3,0.4,0.4
			C33.3,17.3,35.5,16,37.7,14.7z"/>
		<path class="st9" d="M46.4,14c-0.2-0.2-0.4-0.5-0.6-0.9c-0.1,0-0.3,0-0.4,0c-0.1,0-0.2,0-0.4,0c-0.1,0.8-0.5,1.2-0.9,1.3
			c-0.2,0.1-0.4,0.1-0.6,0c-0.1,0-0.3,0-0.4,0c-0.3,0-0.6-0.1-0.9-0.1c-0.4,0-0.8,0-1.1,0l0,0c-0.1,0.3,0,0.6,0.2,0.8
			c0.4,0.6,1.2,1.1,0.1,2.1c-4,3.3-6,7.8-6.5,12.9c0.1,0,0.3,0,0.4,0c0.2-0.1,0.5-0.2,0.7-0.3c0.3,0,0.5,0,0.8,0l0,0
			c0.5-0.1,1-0.2,1.5-0.3c0.7,0,1.3,0,2-0.1c3.2-5.6,10.1-0.5,13.7-4.8c0.4,0.4,0.9,0.5,1.6,0.5c0.2,0,0.4,0,0.6-0.1
			c1.1-0.2,2.4-0.6,3.3-0.2c0.1,0.1,0.3,0.1,0.4,0.2c0.1,0,0.1,0.1,0.2,0.2c0.3,0.4,0.5,1,0.5,1.9c0,0.3,0,0.7-0.1,1.1l0,0
			c0.8,0.3,1.5,0.5,2.3,0.8c0.1,0,0.3,0,0.4,0.1c1.5-0.2,3-0.5,4.5-0.7c-1.8-4.4-3-9.4-7.4-12c-2.4-1.4-5.6-1.7-8.4-2.5
			c-0.3,0-0.5,0-0.8,0C49.7,13.5,47.8,15.6,46.4,14z M39.1,25.6c-0.1,0-0.5-0.2-0.5-0.3c0-0.3,0.2-0.5,0.4-0.7
			c0.2,0.1,0.4,0.3,0.7,0.5C39.4,25.3,39.3,25.6,39.1,25.6z M54,20c-3.7,1.2-5.2,1.9-6.7,2.1c-0.7,0.1-1.5-0.9-2.2-1.4
			c1.1-0.6,2.2-1.5,3.3-1.7C49.5,18.8,50.7,19.4,54,20z"/>
		<path class="st0" d="M76.4,51.9c0,0.2,0,0.5,0.1,0.7c0.1,0.4,0.2,0.8,0.3,1.3c0.8-0.7,1.6-1.3,2.4-2c0.3-0.9,0.5-1.9,0.8-2.8
			c0-0.2,0.1-0.5,0.1-0.7c0.1-1.3,0.6-2.7,0.1-3.7c-0.3-0.6-0.9-1.1-2.1-1.4c-0.7,1.2-1.3,2.4-2,3.5C76.2,48.6,76.3,50.2,76.4,51.9z
			"/>
		<path class="st0" d="M58.3,32.8c0.2,0,0.4,0,0.5,0.1c0.1,0,0.1,0,0.2,0c0.4,0.2,0.8,0.4,1.3,0.6c0.2,0.1,0.5,0.1,0.7,0.2
			c0.1,0.1,0.3,0.2,0.4,0.3l0,0c0.5,0.2,1.1,0.4,1.6,0.7c0.3,0.3,0.6,0.6,0.9,0.9c0.6,0.3,1.2,0.6,1.8,0.9c0.7-0.3,1.3-0.6,2-0.8
			c-1.4-1.7-2.9-3.3-4.3-5c-1.7,0.1-3.4,0.3-5,0.4C58.3,31.6,58.3,32.2,58.3,32.8z"/>
		<path class="st11" d="M62.9,29c-0.8-0.3-1.5-0.5-2.3-0.8l0,0l0,0c-1.9-0.1-3.9-0.3-5.8-0.4c-1.6,4.1,1.7,2.8,3.5,3.1
			c1.7-0.1,3.4-0.3,5-0.4c0-0.5,0-1,0-1.5l0,0C63.2,29.1,63,29,62.9,29z"/>
		<path class="st9" d="M67.6,35.6c-0.7,0.3-1.3,0.6-2,0.8c0.5,0.5,1,1,1.6,1.5c1.2,2.1,2.3,4.1,3.5,6.2l0,0
			c-0.2-1.1,0.1-2.5,0.3-3.7C71.3,38.3,71.3,36.3,67.6,35.6z"/>
		<path class="st11" d="M68.4,26.7c0.4,1,0.8,2,1.2,3c1.2,3,2.5,6,3.7,9c-1.2-4.5-2.3-9.1-3.5-13.6C69.4,25.7,68.3,26.4,68.4,26.7z"
			/>
		<path class="st9" d="M74.9,49.6c0.4-0.9,0.8-1.8,1.2-2.7l0,0c0.7-1.2,1.3-2.4,2-3.5c-0.3-0.3-0.6-0.6-0.9-0.9c-0.2,0-0.4,0-0.6,0
			C73.4,44.2,74.6,47,74.9,49.6z"/>
		<path class="st3" d="M71.1,56.6c0.7-0.6,0.9-1.2,1-1.9c0-0.1,0-0.3,0-0.4c0-0.1,0-0.3,0-0.4s0-0.3-0.1-0.4
			c-0.2-1.1-0.6-2.1-0.6-3.2C70.5,52.4,68.6,54.3,71.1,56.6z"/>
		<path class="st11" d="M51.3,13.9c0.3,0,0.5,0,0.8,0c0.3-0.4,0.5-0.7,0.8-0.8c0.2-0.1,0.3-0.1,0.5-0.2c0.7-0.1,1.5,0.2,2.3,0.5
			C53.3,10,49.9,12.3,47,12C47.9,13.9,50.8,11.1,51.3,13.9z"/>
		<path class="st11" d="M67.2,17c0.9,2.5,1.8,4.9,2.6,7.4C69.4,21.7,71.2,18.3,67.2,17z"/>
		<path class="st9" d="M69.4,45c0.6,0.9,1.1,1.8,1.7,2.6c-0.1-1-0.3-2-0.4-3.1C70.2,44.7,69.8,44.8,69.4,45z"/>
		<path class="st10" d="M66,16.2c0.4,0.3,0.8,0.5,1.2,0.8"/>
		<line class="st10" x1="74.5" y1="41.8" x2="74.5" y2="41.8"/>
		<path class="st10" d="M74.5,41.8c-0.1-0.3-0.2-0.5-0.4-0.8"/>
		<path class="st11" d="M79.9,49.1c0.6-0.1,1.6-0.2,1.7-0.4c0.2-0.7-0.1-1.6-0.1-2.4c-0.5,0.7-1,1.4-1.4,2.1l0,0
			C80,48.7,79.9,48.9,79.9,49.1z"/>
		<path class="st7" d="M26.8,53.9c-0.6-2-1.3-3.9-1.9-5.9C24.2,50.4,24.1,52.6,26.8,53.9z"/>
		<path class="st9" d="M47.4,36.7c0,0.2,0,0.5,0,0.7c0,0.4-0.1,0.7-0.2,1.1c-0.1,0.4-0.2,0.8-0.4,1.1c-0.1,0.2-0.2,0.4-0.2,0.6
			c-0.2,0.4-0.3,0.7-0.5,1.1c-0.4,0.9-0.8,1.9-0.9,2.8c0.8-0.8,1.7-0.9,2.5-0.8c0.3,0,0.7,0.1,1,0.2c1.5,0.5,3.1,1.3,4.6,0.6
			c-0.9-0.4-1.8-0.9-2.7-1.3c0.6-0.1,1.3-0.4,1.8-0.2c0.7,0.2,2.3-0.3,1.7,1.5c0.3,0.4,0.5,0.8,0.8,1.2c0.3-0.5,0.6-0.9,0.9-1.4
			c1.1,1.3,2.3,2.7,3.4,4l0,0c1.6,2.1,3.1,4.2,4.7,6.3c0.3-2.3-0.9-3.9-2.2-5.4c-0.8-0.9-1.7-1.7-2.3-2.7c-1.2-1.8-4.2-3.3,0.4-5
			c0.8-0.3,1.9-0.4,2.8-0.8c0.4-0.2,0.7-0.4,1-0.6l0,0c0.4-0.3,0.7-0.8,0.9-1.4c0-0.1,0.1-0.3,0.1-0.5c-0.3-0.1-0.5-0.3-0.8-0.4
			c0-0.4,0-0.9,0-1.3c-0.2-0.1-0.5-0.1-0.7-0.2c-0.1,0-0.3-0.1-0.4-0.1c-0.9,0.4-1.3,0.7-1.4,1c-0.1,0.4,0.2,0.8,0.8,1.4
			c0.1,0.1,0.2,0.3,0.3,0.5c-0.5,0.1-1.2,0.6-1.6,0.4c-0.8-0.3-1.6-0.3-2.5-0.3c-0.3,0-0.7,0-1,0c-1.5,0-3-0.2-3.9-2.2
			c-0.2-0.2-0.6-0.5-0.8-0.7c-0.1-0.1-0.2-0.2-0.2-0.3c0.7-1.2,1.4-2.4,2.3-3.4c0.2-0.2,1.2,0.2,1.9,0.4l0,0c0.7,0,1.3,0,2,0
			c0-0.6,0-1.2,0-1.8c-1.8-0.3-5.1,1-3.5-3.1c-4.9-1.2-4,2.4-4.3,5.1C50.7,33.9,51,35,51.2,36c-1.3-0.5-2.6-0.9-3.9-1.4l0,0
			C47.3,35.5,47.4,36.1,47.4,36.7z"/>
		<polygon class="st9" points="64.5,37.9 64.5,37.9 64.5,37.9 64.5,37.9 		"/>
		<path class="st11" d="M59,48L59,48L59,48c-0.3,0.4-0.5,0.8-0.8,1.2c-1.2,2.4-2.9-0.8-4.3,0.3c0.1,0.4,0.5,0.8,0.6,1.2
			c0,0.1,0,0.2,0,0.2l0,0c0,0.2-0.1,0.3-0.4,0.5c-0.2,0.1-0.4,0.1-0.6,0.2c1.9,1,3.9,1.9,5.8,2.9c0.3,0,0.5,0,0.8,0l0,0
			c0.1-0.5,0.3-1,0.4-1.6c0.8,1.2,1.6,2.4,2.3,3.6c0.1,0,0.3,0,0.4,0c0.1-0.4,0.3-0.8,0.4-1.2l0,0c0-0.1,0-0.1,0-0.2
			c0-0.3,0-0.6,0-0.9C62.2,52.1,60.6,50.1,59,48z"/>
		<path class="st11" d="M63.7,36.2c0,0.4,0,0.9,0,1.3c0.3,0.1,0.5,0.3,0.8,0.4l0,0l0,0l0,0l0,0l0,0l0,0c0.9,0,1.8,0,2.7,0
			c-0.5-0.5-1-1-1.6-1.5l0,0c-0.6-0.3-1.2-0.6-1.8-0.9C63.8,35.8,63.8,36,63.7,36.2z"/>
		<path class="st3" d="M62.9,56.5c-0.1,0.3-0.2,0.5-0.3,0.8c0.1,0.1,0.2,0.1,0.3,0.2c0.1,0.1,0.2,0.1,0.3,0.2
			c0.2-0.4,0.3-0.8,0.5-1.2c-0.1,0-0.3,0-0.4,0C63.2,56.5,63,56.5,62.9,56.5z"/>
		<path class="st9" d="M63.3,56.5c0.1,0,0.3,0,0.4,0c0-0.4,0-0.8,0-1.2l0,0C63.6,55.8,63.4,56.2,63.3,56.5z"/>
		<path class="st11" d="M41.9,64.3c-0.4-7,6.5-0.7,8.3-4.5c0.2-0.5,1-0.7,2-0.9c1.3-0.2,2.9-0.2,4.1-0.4c0.3-0.3,0.5-0.5,0.8-0.8
			c0.4-0.4,0.8-0.8,1.2-1.2c-0.8-0.3-1.5-0.5-2.3-0.8c-1,0.4-2.1,0.8-3.1,1.2c-0.4,0.2-0.7,0.4-1.1,0.5l0,0l0,0
			c-1.6,0.4-3.2,0.7-4.8,1.1c-1.1,0.7-2.2,1.1-3.3,1.2c-0.4,0-0.7,0.1-1.1,0.1c-0.4,0-0.7,0-1.1-0.1c-1.1-0.2-2.2-0.6-3.3-1.2
			c0,0.6,0.1,1.3,0.1,1.9C39.6,61.7,40.8,63,41.9,64.3z"/>
		<path class="st7" d="M53.6,60c0.9-0.5,1.8-1,2.7-1.5c-1.2,0.2-2.8,0.2-4.1,0.4c-1,0.1-1.8,0.4-2,0.9c-1.8,3.8-8.7-2.4-8.3,4.5
			c0,0.1,0,0.2,0.1,0.3c1.2-0.6,2.4-1.2,3.6-1.9c1.1,0,2.3,0,3.4-0.1c0.1,0,0.3,0,0.4,0c0.3-0.1,0.5-0.2,0.8-0.3
			c0.9-0.4,1.8-0.9,2.6-1.3C53.1,60.8,53.3,60.4,53.6,60z"/>
		<path class="st9" d="M58.6,59.8c0.6-1.1,1.1-2.3,0.1-3.6c-0.1,0.1-0.3,0.2-0.4,0.3c-0.4,0.4-0.8,0.8-1.2,1.2
			c-0.3,0.3-0.5,0.5-0.8,0.8c-0.9,0.5-1.8,1-2.7,1.5c1.2,0.1,2.4,0.3,3.6,0.4c-0.9,0.6-1.7,1.4-2.7,1.8c-0.4,0.1-1.1-0.7-1.7-1.1
			c-0.9,0.4-1.8,0.9-2.6,1.3c0.2,0.2,0.5,0.4,0.7,0.7l0,0l0,0c0.1,0,0.3,0,0.4,0c1,0.3,2,0.5,3.1,0.8c0.8-0.4,1.6-0.7,2.4-1.1
			c0.4-0.1,0.8-0.2,1.2-0.3C57.7,61.5,58.2,60.6,58.6,59.8z"/>
		<path class="st11" d="M58.7,56.2L58.7,56.2c1,1.3,0.5,2.5-0.1,3.6c-0.4,0.9-0.9,1.8-0.7,2.7c0.5-0.2,1-0.3,1.5-0.5l0,0
			c0.4-1.8,0.8-3.6,1.2-5.4c-0.4-0.3-0.8-0.5-1.3-0.8C59.2,55.9,58.9,56,58.7,56.2z"/>
		<path class="st7" d="M48.3,67.6c-0.8,0-1.7,0-2,0.7c-0.1,0.2-0.1,0.6-0.1,1c1.1-0.1,2.2-0.2,3.4-0.3
			C49.2,68.5,48.8,67.6,48.3,67.6z"/>
		<path class="st7" d="M46.2,69.3L46.2,69.3C46.3,69.3,46.3,69.3,46.2,69.3L46.2,69.3L46.2,69.3z"/>
		<path class="st11" d="M56.7,62.8c-0.8,0.4-1.6,0.7-2.4,1.1c-0.8,0.5-1.5,1-2.3,1.6c0.8,0.3,1.5,0.3,2,0.1c0.3-0.1,0.6-0.3,0.9-0.5
			C55.7,64.6,56.2,63.7,56.7,62.8z"/>
		<path class="st11" d="M42,64.7c0.3,0.4,0.7,0.8,1,1.2c0.9-1,1.7-2,2.6-3.1C44.4,63.5,43.2,64.1,42,64.7z"/>
		<path class="st11" d="M49.8,68.7c0.3,0.6,0.6,1,0.9,1.5c0.3-0.8,0.7-1.6,0.9-2.4c0.1-0.4-0.4-0.8-0.6-1.3
			C50.6,67.2,50.3,67.9,49.8,68.7z"/>
		<path class="st7" d="M51.3,63.1c0,0.8,0,1.6,0,2.3c0.3,0,0.5,0,0.8,0c0.8-0.5,1.5-1,2.3-1.6C53.4,63.6,52.3,63.4,51.3,63.1z"/>
		<path class="st11" d="M51.3,63.1c-0.1,0-0.3,0-0.4,0l0,0c0,0.3-0.3,0.6-0.5,1c-0.1,0.1-0.1,0.2-0.2,0.3c0,0.1,0,0.1,0,0.2
			s0,0.2,0,0.3s0.1,0.2,0.2,0.3c0.2,0.1,0.4,0.2,0.8,0.3C51.3,64.7,51.3,63.9,51.3,63.1z"/>
		<path class="st10" d="M49.4,62.8c-0.1,0-0.3,0-0.4,0"/>
		<path class="st7" d="M46.2,69.3L46.2,69.3L46.2,69.3C46.2,69.4,46.3,69.3,46.2,69.3L46.2,69.3z"/>
		<path class="st10" d="M48.6,76.7c-0.3,0-0.5-0.1-0.8-0.1"/>
		<path class="st8" d="M62.9,56.5L62.9,56.5c-0.8-1.2-1.6-2.4-2.3-3.6c-0.1,0.5-0.3,1-0.4,1.6l0,0l0,0l0,0c-0.3,0.4-0.5,0.8-0.8,1.2
			c0.4,0.3,0.8,0.5,1.3,0.8c0.6-0.7,0.9-0.6,1.1-0.4c0,0,0.1,0.1,0.1,0.2c0.1,0.3,0.2,0.7,0.3,1c0.2,0,0.3,0,0.5,0
			C62.7,57.1,62.8,56.8,62.9,56.5z"/>
		<path class="st10" d="M37,84.1c-0.1-0.4-0.2-0.7-0.4-1.1"/>
		<path class="st7" d="M46.4,14c1.4,1.5,3.3-0.5,4.9-0.1c-0.5-2.8-3.4,0-4.3-1.9c-0.4,0-0.8,0-1.2,0c0,0.4,0,0.8,0,1.1
			C46,13.5,46.2,13.8,46.4,14z"/>
		<path class="st11" d="M41.2,14.3c0.4,0,0.8,0,1.1,0c0.9-0.4,1.8-0.8,2.7-1.1c0.1,0,0.2,0,0.4,0c0.1,0,0.3,0,0.4,0l0,0
			c0-0.4,0-0.8,0-1.1c-1.2,0.7-2.7,0.6-4.1,0.7c-0.4,0-0.7,0.1-1,0.1s-0.7,0.2-1,0.3c-0.6,0.3-1.2,0.8-1.6,1.6l0,0
			C39.1,14.6,40.2,14.4,41.2,14.3z"/>
		<polygon class="st11" points="56.6,12.3 56.4,12.3 56.5,12.5 		"/>
		<path class="st11" d="M45.9,55.8c0.4-0.4,0.7-0.8,1.1-1.2c-1.2-0.4-1-1.1-0.6-1.8c0.5-1,1.3-2-0.5-2.4c-1.6,0.9-3.1,1.9-4.7,2.7
			c-0.1,0-0.8-1.2-1.2-1.9c1.8-0.6,3.6-1.3,5.3-1.9c0.3,0,0.6,0,0.8,0c-0.6-0.9-1.3-1.8-1.9-2.7c-2.7,1.4-5.4,2.8-8.1,4.3V51
			c-0.1,0.4-0.2,0.7-0.3,1.1c4.8-0.8,0.5,3.4,2.2,4.2c1-0.3,2.1-0.7,3.1-1c0.3,0,0.5,0,0.8,0c0.1,0,0.3,0,0.4,0l0,0
			C43.5,55.3,44.7,55.5,45.9,55.8z M46.5,51.6L46.5,51.6L46.5,51.6L46.5,51.6c0,0.1-0.1,0.2-0.2,0.2l-0.1-0.1
			C46.3,51.6,46.4,51.6,46.5,51.6z"/>
		<path class="st7" d="M44.3,46.4c0.2-0.5,0.5-1,0.7-1.6l0,0c0-0.2,0-0.5,0-0.7c0.1-1,0.5-1.9,0.9-2.8c0.2-0.4,0.3-0.7,0.5-1.1
			c0.1-0.2,0.2-0.4,0.2-0.6c0.2-0.4,0.3-0.8,0.4-1.1c0.1-0.4,0.2-0.7,0.2-1.1c0-0.2,0-0.5,0-0.7c0-0.6-0.1-1.2-0.4-1.9l0,0
			c-0.8-0.3-1.6-0.5-2.3-0.8l0,0c1.4,1.9,0.7,3.9,0.5,6c-0.4,3.3-3.1,4.1-5,5.8c0-0.3-0.1-0.6-0.1-1l0,0c-1.3,1.9-2.6,3.9-3.8,5.8
			C38.9,49.3,41.6,47.9,44.3,46.4z"/>
		<path class="st14" d="M51.7,57.4L51.7,57.4c-0.3-0.6-1.9-0.5-2.4-1c-0.1-0.1-0.2-0.2-0.1-0.4c0-0.3,0.3-0.8,0.9-1.5
			c-1,0-2.1,0-3.1,0c-0.4,0.4-0.7,0.8-1.1,1.2c0,0.7,0,1.5,0,2.2c0.2,0.1,0.4,0.2,0.5,0.2s0.4,0.2,0.5,0.2
			C48.6,58.1,50.2,57.8,51.7,57.4z"/>
		<path class="st3" d="M45.9,55.8c-1.2-0.3-2.3-0.5-3.5-0.8l0,0c-0.7,2.2-0.1,2.8,0.9,2.9c0.2,0,0.5,0,0.7,0c0.4,0,0.8,0,1.1,0
			s0.5,0,0.7,0C45.9,57.3,45.9,56.5,45.9,55.8z"/>
		<path class="st6" d="M38,56.1c1.2,0.7,2.3,1.4,3.5,2.2c-0.1-1.1-0.2-2.1-0.4-3.2l0,0C40.1,55.4,39.1,55.8,38,56.1z"/>
		<path class="st7" d="M35.4,30c0.2,0,0.5,0,0.7,0l0,0c0-0.1,0-0.2,0-0.3C35.9,29.9,35.7,29.9,35.4,30z"/>
		<path class="st0" d="M48.5,19c-1.2,0.2-2.2,1.1-3.3,1.7c0.7,0.5,1.5,1.4,2.2,1.4c1.5-0.2,3-0.9,6.7-2.1
			C50.7,19.4,49.5,18.8,48.5,19z"/>
		<path class="st7" d="M43.6,14.5c0.2,0,0.4,0,0.6,0c0.4-0.1,0.7-0.5,0.9-1.3c-0.9,0.4-1.8,0.8-2.7,1.1c0.3,0,0.6,0.1,0.9,0.1
			C43.4,14.4,43.5,14.5,43.6,14.5z"/>
		<path class="st10" d="M62.9,29c-0.8-0.3-1.5-0.5-2.3-0.8"/>
		<line class="st10" x1="60.6" y1="28.3" x2="60.6" y2="28.3"/>
		<path class="st7" d="M38.6,25.3c0,0.1,0.4,0.3,0.5,0.3c0.2-0.1,0.3-0.3,0.5-0.6c-0.3-0.2-0.5-0.3-0.7-0.5
			C38.8,24.8,38.6,25.1,38.6,25.3z"/>
		<path class="st8" d="M56.3,32.8L56.3,32.8c-1.1,0.4-1.9,0.9-2.4,1.8c-0.3,0.5-0.4,1.1-0.4,1.8c1.2-0.5,2.3-1,3.5-1.5
			c0.8-0.4,1.6-0.9,2.4-1.3c-0.1-0.2-0.3-0.4-0.4-0.6c-0.1,0-0.1,0-0.2,0c-0.2,0-0.4,0-0.5-0.1C57.6,32.8,57,32.8,56.3,32.8
			L56.3,32.8z"/>
		<path class="st6" d="M57,34.9c1.8,0.3,3.7,0.7,5.5,1c0.1,0,0.3,0.1,0.4,0.1c0.2,0.1,0.5,0.1,0.7,0.2c0.1-0.2,0.1-0.4,0.2-0.6
			c-0.3-0.3-0.6-0.6-0.9-0.9c-0.5-0.2-1.1-0.4-1.6-0.7l0,0c-0.1-0.1-0.3-0.2-0.4-0.3c-0.2-0.1-0.5-0.1-0.7-0.2c-0.3,0-0.5,0-0.8,0.1
			C58.7,34,57.8,34.4,57,34.9z"/>
		<path class="st10" d="M61.4,34c0.5,0.2,1.1,0.4,1.6,0.7"/>
		<path class="st11" d="M59.5,33.5L59.5,33.5c0.3,0,0.5,0,0.8-0.1c-0.4-0.2-0.8-0.4-1.3-0.6C59.2,33.1,59.3,33.3,59.5,33.5z"/>
		<path class="st10" d="M61.4,34c-0.1-0.1-0.3-0.2-0.4-0.3"/>
		<path class="st11" d="M57,34.9c-1.2,0.5-2.3,1-3.5,1.5c-0.1,0.1-0.2,0.3-0.3,0.4c0.9,2,2.3,2.2,3.9,2.2c0.3,0,0.7,0,1,0
			c0.9,0,1.7,0,2.5,0.3c0.4,0.2,1.1-0.3,1.6-0.4c-0.1-0.2-0.1-0.3-0.3-0.5c-0.6-0.6-0.9-1.1-0.8-1.4c0.1-0.4,0.5-0.7,1.4-1
			C60.7,35.6,58.9,35.2,57,34.9z"/>
		<path class="st0" d="M46.3,45.9c0.5,0.3,1,0.5,1.5,0.6c0.3,0,0.5,0.1,0.8,0.1c0.4,0,0.8,0,1.2,0s0.8-0.1,1.3-0.2
			c1.3-0.2,2.5-0.5,3.7-0.3c0-0.3,0-0.5,0-0.8l0,0c-0.3-0.4-0.5-0.8-0.8-1.2c-0.3,0-0.5,0-0.8,0l0,0c-1.5,0.7-3.1-0.2-4.6-0.6
			c-0.3-0.1-0.7-0.2-1-0.2c-0.8-0.1-1.7,0.1-2.5,0.8l0,0c0,0.2,0,0.5,0,0.7l0,0l0,0C45.5,45.3,45.9,45.7,46.3,45.9z"/>
		<path class="st7" d="M54.8,46.1c2.1-0.1,3.1,1.2,3.5,3.1c0.3-0.4,0.5-0.8,0.8-1.2l0,0c-1.1-1.3-2.3-2.7-3.4-4
			c-0.3,0.5-0.6,0.9-0.9,1.4C54.8,45.6,54.8,45.8,54.8,46.1z"/>
		<path class="st7" d="M53.5,36.4c0-0.7,0.2-1.3,0.4-1.8c0.5-0.8,1.3-1.4,2.4-1.8l0,0c-0.6-0.1-1.7-0.6-1.9-0.4
			c-0.9,1-1.6,2.2-2.3,3.4c0,0,0.1,0.1,0.2,0.3c0.2,0.2,0.6,0.5,0.8,0.7C53.3,36.7,53.4,36.5,53.5,36.4z"/>
		<path class="st7" d="M54,44.1c0.6-1.8-0.9-1.3-1.7-1.5c-0.6-0.1-1.2,0.1-1.8,0.2c0.9,0.4,1.8,0.9,2.7,1.3
			C53.5,44.1,53.7,44.1,54,44.1z"/>
		<path class="st10" d="M63.7,37.5c0.3,0.1,0.5,0.3,0.8,0.4"/>
		<line class="st10" x1="64.5" y1="37.9" x2="64.5" y2="37.9"/>
		<path class="st9" d="M52.5,49.5c0.5,0,1,0,1.5,0l0,0c1.3-1.1,3,2.1,4.3-0.3c-0.4-1.9-1.3-3.2-3.5-3.1c-1.2-0.1-2.5,0.2-3.7,0.3
			c-0.4,0.1-0.8,0.1-1.3,0.2c-0.4,0-0.8,0-1.2,0c-0.3,0-0.5-0.1-0.8-0.1c-0.5-0.1-1-0.3-1.5-0.6c-0.4-0.3-0.8-0.6-1.2-1l0,0
			c-0.2,0.5-0.5,1-0.7,1.6l0,0c0.6,0.9,1.3,1.8,1.9,2.7c0.6,0.3,1.3,0.5,1.9,0.8C49.6,49.8,51,49.6,52.5,49.5z"/>
		<path class="st7" d="M50.2,54.6c0.1,0,0.2,0,0.3,0l0,0l0,0c0.1,0.1,0.2,0.2,0.3,0.4c0,0.1,0,0.3,0,0.4c0.7-0.4,1.3-0.8,2-1.2
			c0.6-0.6,1.1-0.9,1.7-0.9c0.2,0,0.4,0,0.5,0c0.4,0.1,0.7,0.2,1.1,0.4c0.3,0.2,0.7,0.5,1,0.8l0,0c0.8,0,1.5,0,2.3-0.1
			c-1.9-1-3.9-1.9-5.8-2.9c-0.4-0.1-0.8-0.3-1.1-0.4c-0.3,0.2-0.8,0.6-1.1,0.9c-0.2,0.1-0.4,0.2-0.4,0.2c-1-0.6-1.9-1.5-2.8-2.2
			c-0.6-0.3-1.3-0.5-1.9-0.8c-0.3,0-0.6,0-0.8,0c0.2,0.4,0.4,0.8,0.5,1.1l0,0c1.7,0.4,1,1.5,0.5,2.4c-0.4,0.8-0.6,1.5,0.6,1.8
			C48.1,54.5,49.2,54.5,50.2,54.6C50.2,54.6,50.2,54.6,50.2,54.6z"/>
		<path class="st6" d="M58.7,56.2c0.2-0.2,0.5-0.3,0.7-0.5c0.3-0.4,0.5-0.8,0.8-1.2l0,0c-0.3,0-0.5,0-0.8,0c-0.8,0-1.5,0-2.3,0.1
			l0,0l0,0c-0.4,0.3-0.8,0.6-1.1,0.9c0,0.1,0,0.2,0,0.3c0.8,0.3,1.5,0.5,2.3,0.8l0,0C58.4,56.4,58.5,56.3,58.7,56.2z"/>
		<path class="st8" d="M52.5,49.5c0,0.6,0,1.1,0,1.7c0.4,0.1,0.8,0.3,1.1,0.4c0.3,0,0.5-0.1,0.6-0.2c0.3-0.1,0.4-0.3,0.4-0.5l0,0
			c0-0.1,0-0.2,0-0.2c-0.1-0.4-0.6-0.8-0.6-1.2C53.5,49.5,53,49.5,52.5,49.5z"/>
		<path class="st14" d="M56,55.4c-1-0.4-2.1-0.8-3.1-1.2c-0.7,0.4-1.3,0.8-2,1.2c0.3,1,2.6-0.8,2,1.4c1-0.4,2.1-0.8,3.1-1.2
			C55.9,55.6,55.9,55.5,56,55.4z"/>
		<path class="st15" d="M50.9,55.4c0-0.1,0-0.3,0-0.4c-0.1-0.1-0.2-0.2-0.3-0.4l0,0c-0.1,0-0.2,0-0.3,0h-0.1
			c-0.7,0.7-0.9,1.2-0.9,1.5c0,0.2,0,0.3,0.1,0.4c0.5,0.5,2.1,0.4,2.4,1c0.4-0.2,0.7-0.4,1.1-0.5C53.5,54.6,51.2,56.4,50.9,55.4z"/>
		<path class="st0" d="M54.5,62.2c1-0.4,1.8-1.2,2.7-1.8c-1.2-0.1-2.4-0.3-3.6-0.4c-0.3,0.4-0.5,0.8-0.8,1.1
			C53.4,61.6,54.1,62.4,54.5,62.2z"/>
		<path class="st8" d="M45.4,49.2c-1.8,0.6-3.6,1.3-5.3,1.9c0.4,0.7,1.1,1.9,1.2,1.9c1.6-0.8,3.2-1.8,4.7-2.7
			C45.8,49.9,45.6,49.6,45.4,49.2z"/>
		<path class="st8" d="M46.3,51.8c0.1,0,0.2,0,0.3-0.1l0,0l-0.1-0.1C46.4,51.6,46.3,51.7,46.3,51.8C46.3,51.7,46.3,51.8,46.3,51.8z"
			/>
		<path class="st11" d="M52.5,49.5c-1.4,0.2-2.9,0.3-4.3,0.5c0.9,0.8,1.8,1.6,2.8,2.2c0.1,0.1,0.2,0,0.4-0.2
			c0.3-0.2,0.8-0.6,1.1-0.9C52.5,50.6,52.5,50,52.5,49.5z"/>
		<path class="st11" d="M55,53.3c-0.2,0-0.4,0-0.5,0c-0.5,0.1-1.1,0.3-1.7,0.9c1,0.4,2.1,0.8,3.1,1.2c0.4-0.3,0.8-0.6,1.1-0.9l0,0
			c-0.3-0.3-0.7-0.6-1-0.8C55.7,53.5,55.4,53.4,55,53.3z"/>
		<line class="st10" x1="50.6" y1="54.6" x2="50.6" y2="54.6"/>
		<path class="st10" d="M50.6,54.6c0.1,0.1,0.2,0.2,0.3,0.4"/>
	</g>
</g>
</svg>
